<?xml version="1.0" encoding="UTF-8"?>
<svg width="185px" height="109px" viewBox="0 0 185 109" version="1.1" xmlns="http://www.w3.org/2000/svg" xmlns:xlink="http://www.w3.org/1999/xlink">
    <!-- Generator: Sketch 49.3 (51167) - http://www.bohemiancoding.com/sketch -->
    <title>Group 3</title>
    <desc>Created with Sketch.</desc>
    <defs>
        <linearGradient x1="100%" y1="50%" x2="0%" y2="50%" id="linearGradient-1">
            <stop stop-color="#EEEEEE" offset="0%"></stop>
            <stop stop-color="#CBCBCB" offset="100%"></stop>
        </linearGradient>
        <linearGradient x1="100%" y1="50%" x2="0%" y2="50%" id="linearGradient-2">
            <stop stop-color="#D2D2D2" offset="0%"></stop>
            <stop stop-color="#E1E1E1" offset="100%"></stop>
        </linearGradient>
        <linearGradient x1="100%" y1="50%" x2="0%" y2="50%" id="linearGradient-3">
            <stop stop-color="#DBDBDB" offset="0%"></stop>
            <stop stop-color="#FCFCFC" offset="100%"></stop>
        </linearGradient>
    </defs>
    <g id="Page-1" stroke="none" stroke-width="1" fill="none" fill-rule="evenodd">
        <g id="Letter" transform="translate(-58.000000, -53.000000)">
            <g id="Group-3" transform="translate(58.000000, 55.000000)">
                <rect id="Rectangle" fill="url(#linearGradient-1)" x="0.392471699" y="57.3872664" width="39" height="18" rx="9"></rect>
                <rect id="Rectangle-Copy" fill="url(#linearGradient-2)" x="118.14084" y="12.5421288" width="66.6040145" height="20" rx="10"></rect>
                <rect id="Rectangle-Copy-2" fill="url(#linearGradient-3)" x="92.8388332" y="75.3872664" width="66.6040145" height="20" rx="10"></rect>
                <path d="M137.446049,87.6585595 L140.817958,101.774151 C141.074595,102.848493 140.411714,103.927465 139.337372,104.184102 C138.916473,104.284646 138.474319,104.245962 138.077274,104.073858 L124.722045,98.2848603 C117.496477,102.483138 109.099416,104.887266 100.14084,104.887266 C73.0788877,104.887266 51.1408404,82.9492191 51.1408404,55.8872664 C51.1408404,28.8253137 73.0788877,6.8872664 100.14084,6.8872664 C127.202793,6.8872664 149.14084,28.8253137 149.14084,55.8872664 C149.14084,68.0096248 144.738801,79.1038318 137.446049,87.6585595 Z" id="Combined-Shape" stroke="#000000" stroke-width="3" fill="#E6001C"></path>
                <circle id="Oval" stroke="#000000" stroke-width="3" fill="#FFFFFF" cx="100.14084" cy="55.8872664" r="37.5"></circle>
                <g id="Group" transform="translate(74.140840, 49.387266)">
                    <circle id="Oval-2" fill="#000000" cx="3.50200195" cy="4.4465333" r="3.5"></circle>
                    <circle id="Oval-2-Copy" fill="#000000" cx="48.4979981" cy="4.4465333" r="3.5"></circle>
                    <path d="M19.8317508,7.9465333 C24.0831612,13.6151332 28.1953273,13.6151332 32.1682492,7.9465333" id="Path-2" stroke="#000000" stroke-width="3" stroke-linecap="round" stroke-linejoin="round"></path>
                </g>
                <g id="Group-2" transform="translate(18.000000, 19.000000)" stroke="#D0021B" stroke-linecap="round" stroke-linejoin="round" stroke-width="6">
                    <path d="M7.23832778,0.165957092 L7.23832778,14.2074255" id="Path-3"></path>
                    <path d="M14.259062,7.18669129 L0.217593579,7.18669129" id="Path-3"></path>
                </g>
                <g id="Group-2-Copy" transform="translate(45.140840, 0.615071)" stroke="#FF001F" stroke-linecap="round" stroke-linejoin="round" stroke-width="4">
                    <path d="M5.8783747,0.134776706 L5.8783747,11.5381029" id="Path-3"></path>
                    <path d="M11.5800378,5.83643979 L0.176711615,5.83643979" id="Path-3"></path>
                </g>
                <g id="Group-2-Copy-2" transform="translate(170.744855, 59.387266)" stroke="#FF001F" stroke-linecap="round" stroke-linejoin="round" stroke-width="4">
                    <path d="M5.8783747,0.134776706 L5.8783747,11.5381029" id="Path-3"></path>
                    <path d="M11.5800378,5.83643979 L0.176711615,5.83643979" id="Path-3"></path>
                </g>
            </g>
        </g>
    </g>
</svg>