<?xml version="1.0" encoding="UTF-8"?>
<svg width="530px" height="380px" viewBox="0 0 530 380" version="1.1" xmlns="http://www.w3.org/2000/svg" xmlns:xlink="http://www.w3.org/1999/xlink">
    <!-- Generator: Sketch 49.1 (51147) - http://www.bohemiancoding.com/sketch -->
    <title>Group 3</title>
    <desc>Created with Sketch.</desc>
    <defs></defs>
    <g id="Welcome" stroke="none" stroke-width="1" fill="none" fill-rule="evenodd">
        <g id="Hi-Fidelity-Mockup-FINAL" transform="translate(-382.000000, -217.000000)">
            <g id="Group-3" transform="translate(382.000000, 215.927371)">
                <g id="icon-03" opacity="0.5" transform="translate(151.348620, 83.176893)">
                    <path d="M174.516792,84.0495847 C174.064722,72.7035113 171.237068,61.2333402 161.220612,54.5941144 C151.381439,48.061258 139.060313,50.8357275 131.454898,59.300962 C124.363602,67.1279799 119.621298,79.0945417 120.365884,89.7403497 C121.252296,102.744014 133.919123,109.241413 145.78818,105.793271 C155.40575,103.001073 164.606706,95.9984183 170.91796,88.3752752 C177.690147,80.1848285 187.600233,65.0005911 174.94227,57.0583397 C166.22884,51.5891777 154.785261,57.2710786 147.055749,61.9867903 C138.792458,67.0765468 131.658211,73.8035532 126.092105,81.7537777 C122.360311,87.0102008 118.468962,93.1973564 121.234568,99.747941 C124.363602,107.167209 132.598369,107.078568 139.024856,104.702984 C149.662553,100.846684 158.603109,93.368501 164.278734,83.5797864 C167.416632,78.1460809 164.624434,70.5052095 158.330909,68.9539886 C147.844656,66.3745297 138.218221,69.4681075 128.680428,73.7583415 C119.621298,77.8358367 110.801499,82.4540432 101.981699,87.0545214 L114.045766,102.690829 C122.989684,95.7631388 133.050022,90.4122138 143.793753,86.8683749 C149.519974,84.953725 153.544285,77.8712932 149.741577,72.242577 C142.774379,61.8538285 129.274324,63.3784572 118.203039,63.0238924 C105.988281,62.6575087 93.7705695,62.6013693 81.5499029,62.8554741 C77.2596689,62.9352512 73.0137555,65.878139 71.9500611,70.1595089 C70.0191164,77.5487799 70.4216325,85.3544953 73.1023967,92.5059551 C76.009828,99.9784082 81.5499029,108.230904 89.6694367,110.624216 C99.0831321,113.398686 105.873048,106.032602 110.172146,98.7728879 C114.240777,91.9031949 116.447943,83.9520794 113.10617,76.3289363 C109.764397,68.7057932 101.370075,63.6975655 93.0732588,66.3302091 C83.8811665,69.2376404 79.9632255,78.1460809 79.4225142,87.0811137 C78.8818028,96.0161466 83.8545741,104.685256 93.826709,104.623207 C103.311317,104.561158 108.514556,96.6898197 111.058558,88.5259653 C113.10617,81.9576524 107.637008,76.3732569 101.458716,75.9300509 C84.4750625,74.7068024 68.6614726,86.4694895 63.8659838,102.522411 C62.0931598,108.505691 67.065931,115.419705 73.4658256,115.118325 C81.3705631,114.886361 88.9075838,111.727509 94.6156156,106.254205 C100.678674,100.315245 105.44757,90.1924198 98.3562742,83.0745315 C92.7984711,77.4990001 83.2252216,77.7560596 76.0630127,79.2452318 C68.6171255,80.857803 61.8466419,84.7195779 56.6683184,90.3076534 C52.8860361,94.2375028 52.8860361,100.454026 56.6683184,104.383876 C62.8732023,110.73945 72.8542013,111.023102 79.9809537,106.068059 C86.5935871,101.46758 93.7114754,90.8217723 91.5043096,82.4008584 C88.9159865,72.6503266 77.6674184,70.3722478 69.060358,72.5971418 C60.9535449,74.8341754 54.2934481,80.6177722 50.942097,88.3309546 C47.396449,96.6543632 47.6801009,109.214821 58.3081806,111.900649 C68.6348803,114.506701 76.7455499,104.419332 75.1500084,94.7751698 C73.5544668,85.1310074 63.8305273,79.4313783 54.4079678,81.7094571 C44.9854084,83.9875359 41.5195375,91.6195431 39.8885395,100.324109 C39.0021275,105.022092 38.2664055,109.666891 39.6492082,114.338282 C41.1738369,119.479472 45.1360984,123.104897 49.7543049,125.54253 C58.6893377,130.249378 69.3085534,133.670928 79.2452318,130.107552 L71.5777681,111.918378 C67.3318546,114.985363 63.0061641,114.675119 59.4782444,110.464662 L52.4401332,127.45718 L70.6381713,128.609515 C76.2934798,128.96408 82.1083425,129.71753 87.6750098,128.201766 C98.1878559,125.338655 103.710203,115.233558 107.149481,105.678037 C108.487963,102.017156 106.520129,97.4078134 103.603833,95.2183758 C100.137962,92.6300528 96.3884396,92.7541505 92.5502757,94.4383332 C84.14709,98.1346712 71.1168338,100.643217 62.3058987,96.9823356 L66.7379586,99.5440663 L68.2537231,103.178355 L68.2537231,101.476444 C68.3255488,100.342974 68.3255488,99.206093 68.2537231,98.0726224 L68.3423643,90.4051587 C68.395549,85.5121645 68.989445,80.0607308 66.4099862,75.637535 C63.8305273,71.2143391 57.9092952,68.3246361 52.7592415,69.6808464 C46.9798354,71.2143391 45.2070114,75.6286708 43.2923615,80.6634909 L45.8540922,76.231431 L46.5720859,75.8945944 L54.2395496,74.8929489 L54.053403,74.8929489 L61.002873,87.1342984 C62.6604635,80.2202849 59.6200703,75.6995838 57.8827028,69.2730969 C57.4693565,68.1067127 57.5532174,66.8217509 58.1146562,65.7189845 C58.676095,64.6162182 59.6658267,63.7924519 60.852183,63.440506 C66.6404533,61.2687966 72.1362076,61.1358348 76.6657729,56.1719277 C80.4684803,52.0057914 82.1969837,46.6518629 83.5620581,41.2890704 C84.0378302,38.850227 84.7229022,36.4569235 85.6096698,34.1357257 C86.0469765,33.4687978 86.5818152,32.8712127 87.1963473,32.3629017 C86.2301582,33.0099824 85.4235233,32.2476681 86.9924725,32.6376894 C88.8362095,33.0986236 86.806326,32.4249505 88.6766553,32.7883794 C91.3358913,33.3202266 93.8355731,34.4814263 96.4416243,35.270333 C100.362476,36.5954232 104.694634,35.6437129 107.699057,32.7972436 C108.666619,31.881483 109.488642,30.8233164 110.13669,29.6593451 C112.600915,25.0943234 109.968271,33.5418296 103.045394,31.2548867 C109.445288,33.3734114 116.572041,31.5562668 120.489982,26.1491537 C123.042848,22.6035057 121.837328,16.9836537 118.929896,14.0850865 C115.605852,10.7610415 110.952189,10.645808 106.865829,12.5250014 L106.644226,12.6313708 L111.687911,11.2574323 C112.255214,11.310617 116.057922,12.1438442 113.460735,11.3726658 C112.228622,11.018101 111.076286,9.13004348 113.567104,11.7183665 L109.117316,28.3651836 L109.205957,28.3651836 L103.887485,28.3651836 C107.690192,29.0034003 111.351074,29.8366275 114.905586,27.7624235 C117.103888,26.4771261 118.008028,24.6511174 119.293325,22.6300981 C120.374748,20.9193229 119.390831,21.2561595 119.444015,22.0184738 C119.444015,22.2843974 118.460098,22.2489409 118.477826,22.1514356 C118.495555,22.0539303 122.076659,24.2256396 122.351447,24.402922 C122.865566,24.7397586 125.897095,26.468262 125.897095,26.689865 C124.124271,24.7043021 123.734249,24.4472426 124.727031,25.9186865 L125.24115,26.8050985 C129.22114,33.4000037 135.089187,36.8747387 142.880748,35.2082842 C148.731068,33.9584433 153.517692,30.0670946 158.064986,26.4859902 C161.90315,23.4899177 163.897577,21.6107243 168.524647,21.371393 C170.882503,21.2472954 174.03813,21.6018602 176.023693,22.9314781 C177.149436,23.6849283 178.736113,26.6278161 180.225285,28.1790371 C183.593651,31.7246851 184.320509,35.5805772 184.96759,40.4912996 C185.446252,44.1078605 185.46398,47.8928397 187.458407,51.1282435 C188.266326,52.3497684 189.176704,53.5003436 190.179692,54.567522 L191.50931,55.8439553 C190.918369,54.939815 190.844501,54.939815 191.287707,55.8439553 L189.931497,50.8179993 C189.39965,46.1643364 191.544767,48.3626381 190.34811,48.575377 C189.852821,48.8282319 189.381143,49.1248847 188.938715,49.4617889 C186.972739,50.5207467 184.948493,51.4677625 182.875657,52.2983073 L165.883139,59.522565 C160.48489,61.8183721 155.10437,64.1407715 149.697257,66.4099862 C147.738286,67.2343493 145.752723,67.952343 143.749432,68.6348803 C143.279634,68.7944344 141.843646,68.8653474 142.074113,68.6348803 C143.971035,66.9772898 143.137808,75.7261762 143.705112,72.6680548 C145.176555,64.6903469 136.950652,56.3492101 129.079314,61.4283508 C117.724376,68.7501138 105.917368,76.3732569 97.1684822,86.8595107 C92.4439063,92.5414116 89.4744261,98.6133337 85.9021858,104.9955 C83.1277163,109.950543 79.1299982,112.264078 73.5367385,113.079577 L81.2042022,131.268751 C78.9261234,132.23494 80.6457627,131.747414 82.4540432,132.305853 C84.2623236,132.864293 85.9996911,133.600015 87.7725151,134.158454 C92.4308508,135.601829 97.3676182,135.905817 102.167846,135.044866 C106.374774,134.215566 110.432789,132.75731 114.205321,130.719176 C117.254578,129.176819 120.826818,125.772997 124.044494,124.98409 L118.726022,124.98409 C117.316627,124.700439 116.696138,123.282179 118.59306,125.870502 C119.479472,127.031702 120.294971,128.192902 121.145926,129.354101 L126.756914,137.012701 L140.372202,123.397413 L137.243168,121.128198 L129.575704,139.317372 L139.787171,142.721194 C150.424114,146.266842 157.577459,129.602297 147.454634,124.53202 L146.984836,124.292689 C143.908986,122.750332 139.973317,122.236213 136.932924,124.292689 C131.676501,127.838337 129.442743,134.477563 133.493645,139.911268 C137.243168,144.946088 143.42146,145.22974 149.103361,144.17491 C157.878839,142.56164 165.005592,136.401077 171.26366,130.408932 L154.625707,120.720449 C153.836801,122.76806 151.762597,123.876075 149.741577,124.416787 C144.989797,125.785411 141.967467,130.4398 142.650281,135.337382 C143.42146,140.460844 147.357129,143.563286 152.400813,143.971035 C159.695984,144.556067 165.847683,140.487436 171.015465,135.771724 C172.300762,134.60166 174.561113,131.454898 176.440306,131.277615 C176.528947,131.277615 176.059149,131.064877 176.130062,131.064877 C176.803735,131.064877 178.674064,133.156809 179.462971,133.635471 C191.464989,140.842001 207.987709,134.060949 214.511701,122.528729 C220.477254,111.989291 218.057349,101.547357 216.506128,90.3431098 C216.807508,92.5059551 216.506128,90.8395006 216.603633,90.4672075 C216.763188,89.4566979 216.213612,89.8733115 216.514992,90.1746916 C216.816372,90.4760716 216.23134,90.9370059 216.630226,89.9796809 C216.17815,91.3152621 215.254803,92.4402957 214.033039,93.1441717 C215.469026,92.3286727 212.047476,94.2965073 212.260215,93.8001166 C213.316444,93.558536 214.38454,93.3721369 215.460162,93.241677 C217.886939,92.462597 220.066411,91.0595429 221.780279,89.173046 C226.566904,84.1648183 227.985163,77.8181085 228.712021,71.1345621 C229.474336,63.6975655 229.03113,56.6505902 223.827891,50.8179993 C219.395831,45.8274998 212.792062,43.1859921 206.649227,40.9699621 L201.330755,60.1696458 C203.973693,60.4392558 206.399207,61.7541395 208.067486,63.8216632 L208.067486,49.7188484 C199.400402,59.1858752 193.345814,70.7451899 190.4988,83.2606781 C188.646199,91.238386 195.258833,96.6632273 202.74015,95.5020276 C209.113452,94.5181103 213.11117,87.8345639 213.102306,81.7626418 C213.102306,75.4779808 209.095724,69.7783517 203.857029,66.5961327 C192.732559,59.8594016 177.823109,66.693638 175.208194,79.2895524 C173.93176,85.4235233 177.991527,92.053885 184.808035,91.8854667 C190.38064,91.915429 195.655794,89.3743288 199.105861,84.9980456 C203.121307,79.7948072 203.874757,72.242577 199.229958,67.136844 C195.66267,63.1847752 190.239725,61.4663796 185.047367,62.6427352 C179.489564,63.9634891 176.059149,67.9080224 172.72624,72.242577 C167.611643,78.890667 176.200975,90.0240015 183.965944,86.8683749 C192.253896,83.5000093 199.61998,78.890667 205.612125,72.1362076 C209.982136,67.2432134 209.219822,60.0898687 203.59997,56.4999001 C201.466948,55.1838887 199.176784,54.1415514 196.783461,53.3974582 C191.234522,51.6246342 186.492218,55.5603034 184.542112,60.3469282 C180.852291,69.2676883 176.548797,77.9220658 171.662546,86.2478865 L185.277834,82.7022385 C183.150445,81.6917288 182.982027,81.6740006 182.476772,79.6707095 L167.850974,90.9104135 C170.315199,92.1336621 172.389403,94.0305837 172.602142,96.6011785 L189.585796,89.5276108 L186.456762,85.9819629 C183.868439,83.0390751 178.993173,82.4363149 175.580487,83.9254871 C171.724594,85.6185339 169.836537,88.9071224 169.464244,93.0200741 C168.356229,105.137326 172.203257,128.937488 189.949225,123.645608 C208.563877,118.096669 201.020511,81.9842448 183.044076,91.5131737 C175.234786,95.6615818 174.179956,105.89964 180.172101,112.175437 C185.198057,117.493909 193.468281,120.720449 200.559576,118.380321 C208.882985,115.721085 212.61478,107.025383 209.778261,98.9767626 C207.277256,92.1984758 203.249395,86.0869249 198.00671,81.115561 L185.942643,96.7518685 L196.136381,102.593324 L194.124225,86.9747443 C191.464989,89.8023985 186.146518,90.653354 182.281761,92.3907215 C177.1583,94.6865286 173.417641,98.5956055 169.437652,102.424905 C166.069286,105.615988 162.20453,106.369439 157.745877,107.335628 C151.540994,108.682974 146.417532,111.005373 140.673583,113.646881 L145.699539,112.290671 C147.620098,113.336637 147.874203,113.404595 146.461853,112.494545 L145.300653,111.608133 C144.414241,110.943324 143.589878,110.251923 142.730058,109.569386 C140.168328,107.539502 137.615461,105.491891 134.929633,103.630426 C130.42666,100.510255 125.303199,97.8864759 119.860629,96.8848303 C108.895713,94.8460827 96.5302655,98.3917307 90.9990547,108.807072 C85.6805828,118.850119 98.2144483,128.556331 106.635362,120.871139 C111.509304,116.290842 116.708399,112.069354 122.191893,108.239768 C122.757187,107.817572 123.349382,107.432645 123.964717,107.087432 C125.199784,106.449216 124.718167,106.466944 122.519865,107.140617 C122.519865,107.096296 125.374112,108.41705 125.835046,108.665246 C128.84929,110.209156 131.718116,112.021827 134.40665,114.081223 L144.095133,97.4432699 L140.638126,96.3973037 L137.97889,115.951552 L162.887067,119.027402 C167.141845,119.550385 171.432079,115.561531 172.486909,111.723367 C173.610306,107.377922 171.751418,102.809956 167.913023,100.483663 C159.616207,95.6083971 150.840728,94.4294691 141.427033,95.7856795 L146.745505,114.985363 C154.794366,111.995066 162.516691,108.190336 169.792216,103.630426 C174.702939,100.510255 177.025338,92.2311674 171.804372,87.9941181 C166.282025,83.5620581 158.809572,81.7892342 152.604688,86.2212941 C149.227458,88.6234706 146.399804,93.1264435 148.030802,97.4609981 C151.665091,107.353356 161.841101,113.664609 172.362811,110.367157 C179.188183,108.22204 182.503364,98.9856267 176.794871,93.7292036 C180.172101,96.8139174 176.794871,101.130744 179.569341,96.344119 C180.508937,94.7485774 181.448534,93.1441717 182.352674,91.5220378 C184.420969,87.8168357 186.362211,84.04663 188.176401,80.2114208 C191.922307,72.5712449 195.095527,64.663377 197.669873,56.5530849 C202.518547,40.4824355 194.345828,24.5092915 179.746623,16.8772843 C163.71143,8.50069097 145.53112,11.9222412 128.529738,14.6169337 C119.745395,16.0086005 110.961053,17.373675 102.158982,18.6057876 C93.684883,19.7935797 84.9891814,19.9442697 78.225858,25.8211812 C71.4625345,31.6980927 66.7025021,41.333391 62.4743169,49.2667783 C59.7353039,54.3547831 55.2589233,60.47989 50.4457063,61.5524485 C41.4220322,63.5291472 41.3954399,75.2209213 47.9992092,79.7770789 C55.5957599,84.9714532 68.4310055,80.3355185 76.2934798,77.5344566 C87.8168357,73.4303691 98.0992147,64.6282981 97.8421553,51.4118953 C97.6471446,41.5904505 84.3864213,37.7966072 79.2895524,46.3859393 C72.5232742,57.8029258 66.129289,69.4415152 60.1075969,81.3017076 L73.7228851,77.7560596 C73.4924179,77.5876413 73.6519721,77.7560596 73.2885432,76.4796263 L66.3390732,88.7209759 C83.8785099,83.3032308 101.919648,79.6682755 120.188601,77.8712932 L113.15049,60.8787754 C112.457131,61.5380009 111.600288,62.0000838 110.668537,62.2172575 L115.694493,80.7698604 L137.535684,71.0902415 C144.502882,68.0055277 151.496673,64.1939562 158.880485,62.2261216 C165.085369,60.5685312 171.104106,64.2116844 177.379903,62.4122681 C185.845137,59.9834992 189.29328,51.3675747 187.316581,43.2480409 C185.685583,36.5556304 180.358247,30.909186 174.224276,28.0372112 C166.63659,24.4915632 158.410686,24.7308945 150.291153,25.2627417 C134.761215,26.2643872 119.04513,26.6810008 103.568377,28.3297271 C95.2981529,29.2161391 87.6750098,32.5135917 83.8279817,40.3406096 C80.5748497,46.9621071 80.5305291,54.4611526 81.4346694,61.6144973 C82.2590325,68.1118972 87.1165702,72.8364731 94.0305837,71.2143391 C117.429363,65.7409941 140.496001,58.9340571 163.117534,50.8268634 C167.762333,49.1604089 171.015465,45.0208649 170.20883,39.9062677 C169.552885,35.5185284 165.404477,30.6521266 160.458298,31.2726149 L100.040457,38.8425733 C94.7219851,39.5073823 90.0860504,42.9377967 90.0860504,48.79698 C90.0860504,53.6545177 94.6688003,59.4339238 100.040457,58.7513866 L160.44057,51.1637 L157.781334,31.6094515 C135.1598,39.7166452 112.093163,46.5235822 88.6943835,51.9969272 L101.290298,61.5967691 C100.904611,58.8187442 100.726834,56.015804 100.758451,53.2113117 C100.758451,51.9260143 101.01551,49.2845065 102.017156,48.4601434 C101.831009,48.6108334 101.210521,49.0629036 101.839873,48.726067 C103.080209,48.2347884 104.406317,47.9966917 105.740086,48.0258015 C109.480745,47.7421497 113.230267,47.5382749 116.97979,47.2989437 L140.611534,45.7743151 C147.578732,45.322245 155.317109,43.9039858 162.266579,44.9410878 C164.668755,45.2956526 165.714721,46.288434 167.381176,47.0418842 L168.028256,48.0789862 C167.946852,47.9649732 167.946852,47.8118421 168.028256,47.6978291 C168.735474,45.5367994 170.3903,43.8166936 172.522365,43.0264379 L172.770561,43.0884868 C171.751187,42.3616289 168.817163,42.3084442 167.602779,42.1222977 C165.676522,41.7960267 163.723262,41.6565081 161.770188,41.705684 C157.635195,41.9335567 153.560057,42.7976176 149.688392,44.2674147 C134.70803,49.7454408 120.224058,57.1026603 105.642581,63.5646037 C96.7784609,67.4914088 101.050967,83.1365804 110.668537,82.1172066 C116.835602,81.6500143 122.666924,79.1245651 127.226713,74.9461336 C133.316363,69.4503793 128.795662,57.1292526 120.188601,57.9536158 C100.137372,59.7956009 80.3231948,63.6562769 61.0471936,69.4769716 C55.783503,71.0081248 52.6923143,76.4481455 54.0711313,81.7537777 C55.6223523,87.4534068 58.928669,91.5043096 63.6532449,94.9258598 C67.8371095,97.9396606 75.0170466,95.8122718 77.268533,91.3802119 C83.2902251,79.5082006 89.6901197,67.8459736 96.4682167,56.3935307 L77.9244779,51.4118953 C78.0131191,55.8882759 72.3666747,57.9979364 68.2714513,59.2211849 C65.6742642,60.0012275 63.0416206,60.6837647 60.408977,61.3397096 C59.1591361,61.6499538 57.8649746,61.8361003 56.6239978,62.1729369 C57.4394968,62.0429298 57.2622144,62.0222468 56.0921506,62.110888 C56.7615997,62.1771356 57.4182164,62.3383052 58.042257,62.5895505 L55.6666729,80.7787245 C70.239286,77.561049 77.04693,63.0504847 83.9343512,51.4828083 C85.7145828,48.3344136 87.6891954,45.2999641 89.8467191,42.3970854 C91.761369,39.9505883 93.3923671,39.8087624 96.4327602,39.3566923 C104.640935,38.151172 112.866838,37.0963417 121.066149,35.8110443 C129.043857,34.5877958 137.083614,33.0897595 145.141099,32.088114 C152.604688,31.201702 160.74195,30.5900777 167.921887,33.2847702 C172.309626,34.9246323 176.70623,38.4436879 178.558831,42.8225632 C180.633035,47.5471391 177.601506,54.0711313 175.509574,59.3896032 C172.447038,67.2320168 168.821008,74.8425327 164.659891,82.1615272 C160.227831,90.0240015 154.155909,100.084778 162.603415,107.796562 L167.035475,91.1586089 C164.535793,91.9386514 167.115252,90.8926853 167.425496,91.6904561 C166.37953,91.0995147 166.17861,90.9990547 166.822736,91.389076 C167.017546,91.6055675 167.14668,91.8730578 167.195029,92.1602544 L162.621143,103.399958 C160.931557,103.167043 159.27844,102.720255 157.701557,102.07034 L159.713712,86.434033 C153.954999,90.1447763 147.833861,93.2602899 141.444761,95.7324947 C136.418805,97.6471446 132.970662,102.442633 134.495291,107.973844 C136.06424,113.691202 141.40044,115.703357 146.736641,114.923314 C150.636853,114.356011 154.572523,115.6679 157.878839,117.58255 L162.904795,99.0299473 L137.996618,95.9540977 C133.156809,95.3602017 128.742477,100.200011 128.246086,104.58775 C127.590889,109.479156 130.602479,114.117006 135.337382,115.508346 L138.794389,116.554312 C147.773743,119.275597 156.522629,106.236477 148.482872,99.9163593 C140.443115,93.5962418 128.981808,84.6257525 118.176446,87.8966128 C113.469599,89.3237361 109.471881,92.8339275 105.642581,95.7768153 C101.12188,99.2515503 96.7784609,102.868111 92.5414116,106.715139 L108.177719,118.779206 C109.161636,116.935469 107.6636,118.699429 109.152772,117.307763 C108.195447,118.194175 110.544439,116.509992 110.668537,116.421351 C109.569386,116.864557 111.625862,116.244068 111.94497,116.190883 C112.751605,116.049058 111.838601,116.093378 113.230267,116.066786 C116.705002,115.987009 120.011319,117.502773 123.681065,119.913814 C128.113125,122.847837 131.977881,126.615088 136.409941,129.56684 C139.118199,131.456363 142.398817,132.346235 145.690674,132.08425 C149.236322,131.836055 151.567586,129.947997 154.678892,128.609515 C159.261642,126.632817 164.491473,126.375757 169.233777,124.886585 C174.797951,123.121016 179.856527,120.044526 183.983672,115.916096 C187.094978,112.902295 189.488291,110.544439 193.530329,109.117316 C198.946307,107.202666 204.167273,105.190511 208.191584,100.935733 C212.552731,96.344119 211.861329,88.5259653 206.179428,85.2994256 L195.985691,79.4579706 C186.288343,73.9090316 175.686856,87.098842 183.921623,95.0942781 C186.386725,97.4237763 188.447628,100.146684 190.020138,103.151763 C190.374703,103.807708 190.702675,104.478426 191.004055,105.163918 C191.187247,107.947252 192.71483,105.95578 195.586805,99.1895015 C196.987336,99.6740734 196.89574,99.5381569 195.312017,98.781752 C193.06644,97.008928 193.341228,98.0578489 196.136381,101.928515 L194.78017,106.954471 L193.087123,108.56774 L188.061167,109.923951 L188.947579,110.03032 L181.927196,107.255851 C181.052603,105.536211 180.757133,105.134371 181.040784,106.05033 C180.922596,107.858611 181.070332,108.038848 181.48399,106.591042 C186.713821,103.766342 189.74535,103.911123 190.578577,107.025383 C190.300835,106.186247 190.064459,105.335291 189.869448,104.472517 C189.072362,100.711795 188.901648,96.8452748 189.364193,93.0289382 L172.371675,100.067049 L175.50071,103.612697 C180.996464,109.870766 193.228949,105.075277 192.493227,96.5745861 C191.704321,86.9038313 186.793598,78.1194885 177.885158,73.6962927 C170.191102,69.875857 161.04333,76.1782463 163.25936,84.9359967 C164.840225,91.4354027 169.214329,96.9030322 175.208194,99.8720387 C180.056867,102.167846 185.942643,101.281434 188.823482,96.3263908 C194.491661,86.4633688 199.467554,76.2183586 203.715203,65.6654001 L191.464989,72.5882777 C193.237813,73.1733096 191.96138,72.6769189 193.548058,73.6874286 L191.562495,58.0599852 C188.066285,62.2041667 183.666219,65.4913281 178.700657,67.6686912 L189.940361,82.294489 C189.59466,82.7465591 191.137017,81.5942235 190.693811,81.5410388 C189.027357,81.337164 186.598588,83.0568033 185.153736,81.2219305 L182.592005,76.7898705 C182.423587,76.3112081 182.813608,71.9943817 184.808035,71.941197 L194.407877,84.5371113 C195.444979,79.5466118 194.602888,83.5797864 194.594024,83.5620581 C194.58516,83.5443299 194.195138,83.7659329 194.17741,83.7304764 C193.503737,82.0108372 189.098269,77.5255925 197.457135,76.2668875 L209.698484,88.508237 C211.861329,79.192047 215.655173,70.8597743 222.108252,63.7507502 C225.872301,59.8135696 225.872301,53.6117085 222.108252,49.6745278 C218.065307,45.1436899 212.635434,42.0796457 206.666955,40.961098 C194.106497,38.9489428 189.151454,55.7464499 201.348483,60.1607816 C203.486576,60.8346704 205.532254,61.772645 207.438133,62.9529794 C207.934524,63.2632236 208.758887,64.3889668 209.379376,64.4953363 C210.318972,64.6637545 208.758887,64.6637545 209.095724,63.4582342 C208.413187,65.9313237 209.095724,69.2908251 208.687974,71.7993711 C208.524886,73.0189343 208.199962,74.2113173 207.721785,75.345019 C208.608197,73.5190103 206.835373,75.9211868 206.330119,76.3732569 L210.762178,73.8115263 C211.636772,74.065631 211.341301,74.1838193 209.875766,74.1660911 C209.106925,74.2202154 208.34614,74.3569188 207.606552,74.5738406 C206.363969,74.9353104 205.172496,75.4536011 204.060904,76.1161974 C201.844184,77.4515534 200.0117,79.339012 198.742432,81.5942235 C196.375712,85.769224 196.54413,90.6178976 197.270988,95.1917834 C198.325818,101.777824 200.267061,108.487963 196.756869,113.416414 C197.350765,112.583187 195.967962,114.302826 195.764088,114.46238 C195.369945,114.84463 194.921995,115.167154 194.43447,115.419705 C193.131444,116.164291 191.420669,116.908877 190.00241,116.642954 C188.983036,116.447943 187.476136,114.754896 186.17311,113.930533 C183.578708,112.284399 180.599832,111.34338 177.530593,111.200384 C171.210476,110.961053 165.643808,114.098951 160.928096,118.008028 C158.366366,120.135417 155.45007,124.292689 152.409677,124.044494 L155.068913,143.598742 C164.207821,141.161109 170.536802,134.672573 173.860847,125.9946 C177.601506,116.244068 163.888713,109.923951 157.222894,116.306117 C154.69662,118.734886 148.057394,125.569122 144.742214,124.922042 L149.174274,127.483772 L148.438552,126.818963 L151.000282,136.507446 L151.115516,135.878094 L146.54163,141.825918 L147.082341,141.462489 L137.030429,141.462489 L137.500228,141.70182 L145.167691,123.512646 L134.956225,120.108824 C130.302562,118.601924 124.98409,121.571404 123.211266,125.923687 C121.243432,130.807817 123.158082,135.355111 127.279897,138.333455 L130.408932,140.60267 C138.315727,146.337755 149.821354,134.894176 144.02422,126.987381 L136.888603,117.23685 C134.433242,113.886212 132.172892,109.941679 128.61838,107.637008 C120.800226,102.566731 114.258505,107.840882 107.539502,111.714503 C102.903568,114.373739 98.4449154,116.625225 93.1087152,114.976499 C85.1310074,112.521138 79.2895524,110.650808 71.1788827,114.090087 C66.6847739,115.995873 65.3285635,122.484409 67.1102516,126.499855 C69.2642328,131.401713 73.7849339,133.006119 78.8552105,132.261533 C86.3699278,131.10651 93.2569756,127.396895 98.3562742,121.757551 C103.222676,116.279525 105.394385,109.347783 109.489609,103.373366 C116.8291,92.6921016 128.467689,85.4944363 139.157818,78.598151 L124.514292,67.3673111 C123.465479,72.6187889 124.838066,78.0633353 128.251129,82.1899601 C131.664191,86.3165849 136.754572,88.6862065 142.10957,88.6411988 C152.356493,88.7121118 162.692056,82.3210814 171.893013,78.4031404 C183.691156,73.3860485 222.799653,61.960198 206.170564,42.4059495 C205.133462,41.182701 203.679747,39.2946434 204.95618,42.0425206 C206.11738,44.5333383 204.95618,41.1029239 204.902995,40.4292508 C204.790716,39.5428388 204.678438,38.6564268 204.566159,37.7700148 C203.998855,33.4265961 203.378367,29.207275 201.765097,25.1209157 C199.92136,20.4672528 197.235532,17.1432079 193.840574,13.5532393 C190.862229,10.3710203 189.045085,7.17107299 184.896677,5.06141245 C176.112334,0.629352512 164.775125,0.0443205994 155.786907,4.17500046 C152.321036,5.77054204 149.369284,8.15499029 146.382076,10.4862538 C144.112861,12.2590778 141.497946,13.7216576 138.936215,15.6185792 C140.319018,14.5903413 138.422096,16.0263287 138.528466,15.7249487 C139.651254,15.6835828 139.624662,15.6835828 138.448688,15.7249487 L143.510101,18.4373694 C143.678519,17.816881 141.276343,14.7942161 140.850865,14.2003201 C137.987754,10.1848737 133.085896,7.17993711 128.733613,4.93731477 C117.972572,-0.611624272 106.670819,3.48359911 101.31689,14.1116789 L107.255851,9.52006475 L106.91015,9.63529831 L112.228622,9.63529831 C109.569386,9.2718694 106.422623,8.07521321 103.852029,9.15663584 C97.0887051,11.9931542 93.7823884,19.891085 99.4199686,25.7945889 C103.852029,30.3684747 111.182656,32.3629017 116.908877,29.7036657 L103.311317,16.0795135 L103.009937,16.4961271 L106.555585,12.9504791 L109.463016,12.0640672 L108.52342,12.0640672 C107.41245,11.9458789 107.217439,11.9458789 107.938388,12.0640672 C108.458416,12.1408895 108.458416,12.1408895 107.938388,12.0640672 C105.500755,11.8070077 103.568377,11.390394 101.130744,12.0640672 C99.0746967,12.7212309 97.2362049,13.925443 95.8122718,15.5476663 C94.9557129,16.4761907 94.2118786,17.502682 93.5962418,18.6057876 C92.5236833,20.5115734 92.2134391,19.2351401 95.1829193,17.5066368 L100.164555,16.0529211 C102.637644,16.1592905 98.8172085,15.086732 98.6310619,15.0246832 C97.6560087,14.6878466 96.6632273,14.3776025 95.6704459,14.1382712 C93.1755211,13.4329682 90.6097837,13.0078228 88.0207104,12.8707021 C82.6714176,12.6149854 77.43053,14.438179 73.3949126,17.9587069 C69.503564,21.3891213 67.1900287,26.175746 65.6742642,31.0510119 C65.0449117,33.0720313 64.6017057,35.1462353 64.0698585,37.193847 C63.8305273,38.080259 63.6000602,39.037584 63.3164083,39.9417242 C63.3164083,39.9417242 62.1995292,42.8048349 62.7313764,41.6081787 C62.403404,42.3350366 61.6233614,43.0884868 62.6072787,42.5477754 C60.5951235,43.6557904 57.7408769,43.6469263 55.5159828,44.3205994 C49.9011154,46.1142302 45.0325092,49.7057229 41.6613634,54.5409296 C38.305815,59.1346754 36.929892,64.8809897 37.8409278,70.4963454 C38.3236384,73.3076871 39.1143523,76.0573501 40.1987837,78.6956563 C40.7040385,80.0164102 41.1738369,81.3548923 41.7145482,82.6756461 C41.7145482,82.5870049 42.1400259,80.5128009 41.8209176,81.7892342 C40.6951744,86.4872177 43.2923615,93.31259 48.7703876,94.0305837 C52.8035621,94.5801592 56.2960254,93.9330784 59.300962,91.0522394 C61.7031385,88.7475683 62.3768116,85.8135446 63.5380113,82.8795209 L60.9762807,87.3115808 L61.6410897,86.5669948 L57.2090297,89.1287254 L58.0954417,88.8362095 L52.7769698,88.8362095 L50.800271,87.6572815 L48.2385404,83.2252216 C48.9122135,84.953725 48.4690075,89.4301055 48.4424152,92.0184285 C48.4424152,95.6881741 48.1498992,99.4288327 48.3183175,103.089714 C48.6728823,111.067422 53.2910887,115.827455 61.073786,117.095024 C75.1386703,119.370059 89.5622323,117.436432 102.531275,111.53722 L87.9054769,100.297516 C86.0794682,105.29688 84.3598289,109.108452 79.3870577,109.161636 C70.4254325,109.259142 61.2687966,108.053621 52.3248997,107.486318 C42.9643891,106.892422 40.1987837,118.415778 45.2867885,124.478836 C53.8938489,134.734622 70.6293072,136.888603 81.5055823,129.043857 C85.5210286,126.14529 87.7104662,121.429578 85.5742133,116.634089 C83.7127482,112.39704 78.5804228,109.1705 73.8292545,110.872411 C70.3633836,112.113388 67.6243706,111.572677 64.0787226,110.313972 C62.5577082,109.747345 61.0769456,109.078041 59.6466627,108.310681 C56.04783,106.413759 58.9463972,108.620925 58.5563759,108.700702 C58.4411424,108.700702 60.0278198,99.7390769 60.0632763,99.7568052 C60.0987328,99.7745334 58.9198049,100.909141 58.4943271,100.980054 C57.4306327,101.148472 55.8350911,98.9235779 55.6223523,98.0726224 C55.161418,96.2111572 56.5087643,93.0998511 58.6538813,92.7009657 L63.9723532,92.7009657 L64.4864721,93.0200741 L68.0321201,96.565722 C68.617152,97.6294164 67.9877995,98.338546 68.5285108,97.5673676 C68.7371174,97.0294532 68.9001989,96.4749762 69.0160374,95.9097771 C69.535388,94.8869106 70.2595114,93.9817563 71.1434262,93.2505412 C72.029458,92.5063149 73.0763961,91.978294 74.2015475,91.7081843 C74.2015475,91.7081843 75.9743715,91.3004348 75.1411442,91.5752225 C77.1621636,90.9015494 75.9832356,92.8516558 74.3256452,90.9104135 L71.7639146,86.4783536 C70.9395514,84.2268671 72.7389678,84.1116336 71.2941162,85.7603599 C70.4963454,86.6467719 70.0620036,87.9409334 69.2908251,88.8982583 C68.0764407,90.3962946 69.3351457,89.0666766 69.2376404,89.5098826 C69.8285817,89.5867049 69.5331111,89.5867049 68.3512284,89.5098826 C69.1461833,89.5959876 69.9216955,89.811574 70.6470355,90.1480992 L70.6470355,104.224322 C72.777503,101.763951 75.5342216,99.9261388 78.6247434,98.9058497 C79.9195464,98.4917711 81.2581927,98.2299914 82.6135973,98.1258071 C83.5000093,98.0637583 84.4927907,98.2410407 85.326018,98.1258071 C87.6572815,97.7801064 85.6273981,101.520765 83.3227269,96.1757007 L82.0551578,91.3004348 C82.1881196,88.9071224 82.4540432,90.4760716 81.4258052,91.1940654 C80.5393933,91.8145537 79.8657201,92.7718787 78.9349876,93.3923671 C77.3061738,94.4814388 75.4062162,95.0953185 73.4480973,95.1651911 L83.0479392,107.761105 C85.4855722,99.668164 93.3480465,95.1917834 101.449852,95.7768153 L91.8411461,83.2340857 C91.5752225,84.1323165 91.2797518,85.0187285 90.9547341,85.8933217 C90.4347058,86.2892524 90.7094935,86.0528758 91.7790973,85.1841921 C95.0233651,83.8309364 97.5082734,85.3526104 99.2338221,89.7492138 C99.2338221,88.8568924 99.254505,87.9704804 99.2958709,87.0899778 C99.7302128,83.2518139 98.5778772,86.1592453 95.014501,84.4307419 C94.2876432,84.067313 94.8726751,84.9714532 94.9347239,84.6966655 C94.8174917,85.2482583 94.6204052,85.7797947 94.349692,86.2744788 C93.5253289,87.6306892 91.9120591,89.6251161 91.4777172,91.1231524 C91.0758771,92.2341221 90.84541,92.5561851 90.7863158,92.0893415 C92.6418716,91.4333966 92.7393769,91.2827066 91.0788318,91.6372713 L96.3973037,91.6372713 C94.2078661,91.3358913 92.3995857,87.5065915 91.6284072,85.3437462 C90.4817635,82.1741437 90.3210774,78.7317516 91.167473,75.4691167 L81.5499029,82.7288309 C91.4422607,82.5397296 101.334619,82.5397296 111.226976,82.7288309 C115.883594,82.8233815 120.537257,82.9622527 125.187965,83.1454445 C127.696511,83.2429498 130.249378,83.2252216 132.740195,83.4911452 C132.979526,83.4911452 133.422732,83.7038841 133.573423,83.6063787 C134.25596,83.180901 134.326873,84.9094044 132.554049,82.2678966 L138.501873,67.6420988 C124.540301,72.3347631 111.499553,79.4159971 99.9606799,88.5702859 C96.1136519,91.5840866 96.415032,98.1612636 99.1806374,101.635999 C102.241877,105.544665 107.698238,106.632925 112.024747,104.197729 C119.355374,100.403886 126.677137,96.6100426 134.140726,93.0643947 C139.751714,90.4051587 146.639135,86.5581307 153.03903,88.135944 L147.091205,73.5101462 C145.283932,76.7630688 142.846022,79.6228671 139.920132,81.922196 C138.194115,83.2313611 136.323325,84.3377744 134.344601,85.2196486 C133.741841,85.4855722 133.147945,85.698311 132.518592,85.919914 C131.63218,86.2212941 128.760205,86.1947017 130.993964,86.3719841 L136.01992,87.7281945 L135.363975,87.3027167 L139.937861,93.2505412 L139.716258,92.1159338 L139.716258,97.4344058 C141.817054,91.7259125 147.89784,85.9110499 152.613552,82.223576 C155.113784,80.3184623 157.78432,78.6478938 160.59126,77.2330765 C161.992322,76.5100647 163.433622,75.867843 164.908086,75.3095625 C165.138553,75.2209213 166.751823,74.52952 166.308617,74.7777153 C165.889049,74.7777153 165.989509,74.7777153 166.609997,74.7777153 C168.914668,74.8368095 167.523002,73.9799445 162.434997,72.2071206 L161.078787,67.1811646 C161.016738,66.6138609 161.60177,66.4897632 160.999009,67.8282453 C160.595478,68.6451069 160.14563,69.4382593 159.651663,70.2038295 C158.807528,71.6337073 157.871892,73.0075526 156.850601,74.3167811 C154.687243,77.0558911 152.188727,79.5127156 149.413605,81.62968 C146.427971,83.754023 143.188038,85.4960826 139.769442,86.8151901 C138.111852,87.5154556 139.015992,86.4163047 139.326236,87.2318038 C140.283561,89.7580779 140.159464,87.6484174 140.283561,86.4251689 C140.735631,82.2147119 143.891258,71.3561651 148.961535,70.7711331 C153.64179,70.2570142 154.483881,80.6280345 154.616843,84.067313 C155.122098,96.8316456 175.004319,96.9025586 174.525656,84.067313 L174.516792,84.0495847 Z" id="Shape" fill="#603813" fill-rule="nonzero"></path>
                    <path d="M85.0069097,75.345019 C99.351551,83.5924065 104.474004,101.792457 96.5369217,116.311096 C88.5998393,130.829734 70.5141238,136.34229 55.8282002,128.719182 C41.1422765,121.096074 35.2421653,103.133054 42.5477754,88.286634 C42.5477754,88.286634 29.721394,70.3101989 39.3921488,54.195229 C39.3921488,54.195229 44.0901323,44.0458117 59.6112062,40.4647073 C59.6112062,40.4647073 61.8006438,20.1658727 75.3361549,14.1914559 C75.3361549,14.1914559 84.0229924,8.872984 100.244332,12.0020183 C100.244332,12.0020183 108.177719,0.0620488392 121.71323,1.05483027 C121.71323,1.05483027 133.857074,1.45371566 138.43096,10.6103515" id="Shape" stroke="#FFFFFF" stroke-width="3.74" stroke-linecap="round" stroke-linejoin="round"></path>
                    <path d="M116.935469,87.8256998 C112.02322,92.0531028 106.087402,94.917089 99.7213487,96.1313801" id="Shape" stroke="#FFFFFF" stroke-width="3.74" stroke-linecap="round" stroke-linejoin="round"></path>
                    <path d="M165.085369,79.5643401 C143.523912,78.6243092 126.712894,60.5449054 127.340939,38.9721073 C127.968985,17.3993092 145.803325,0.328530278 167.382951,0.644458914 C188.962576,0.960387551 206.289544,18.5459328 206.285798,40.1278707 C206.285798,40.1278707 229.52752,45.6147609 229.740259,66.5872686 C229.740259,66.5872686 229.961862,83.6684276 218.642381,92.647781" id="Shape" stroke="#FFFFFF" stroke-width="3.74" stroke-linecap="round" stroke-linejoin="round"></path>
                    <path d="M193.672155,74.1749552 C208.968223,75.5877561 220.717733,88.3401475 220.875742,103.70051 C221.033751,119.060872 209.549063,132.05227 194.285296,133.779434 C179.021528,135.506598 164.924319,125.409908 161.64609,110.402613" id="Shape" stroke="#FFFFFF" stroke-width="3.74" stroke-linecap="round" stroke-linejoin="round"></path>
                    <path d="M82.4363149,129.41615 C82.4363149,129.41615 102.939024,145.203148 119.231277,125.099324 C119.231277,125.099324 126.863284,145.203148 147.224167,143.42146 C147.224167,143.42146 161.158564,144.095133 173.151718,128.104261" id="Shape" stroke="#FFFFFF" stroke-width="3.74" stroke-linecap="round" stroke-linejoin="round"></path>
                    <path d="M30.5014365,97.5762317 L235.324655,97.5762317 C235.324655,97.5762317 249.081769,204.05204 185.845137,232.869293 L185.845137,297.382358 L79.9898178,297.382358 L79.9898178,254.160909 L34.2598233,254.160909 L33.6304708,197.474863 L0.434341874,187.139299 L29.872084,134.521883 C29.872084,134.521883 26.1225613,106.963335 30.5014365,97.5762317 Z" id="Shape" fill="#603813" fill-rule="nonzero"></path>
                    <path d="M92.3020803,117.272306 C92.3020803,127.412859 83.3936399,135.629898 72.3932671,135.629898 C61.3928943,135.629898 52.4844538,127.412859 52.4844538,117.272306" id="Shape" stroke="#FFFFFF" stroke-width="3.74"></path>
                    <path d="M30.5014365,97.5762317 L235.324655,97.5762317" id="Shape" stroke="#FFFFFF" stroke-width="0.94" stroke-linecap="round" stroke-linejoin="round"></path>
                </g>
                <g id="icon-02" opacity="0.501358696" transform="translate(0.000000, 4.309752)" fill="#603813" fill-rule="nonzero">
                    <path d="M193.278386,71.3698337 C196.003676,71.0590222 198.056427,68.7438888 198.038761,66.0009896 L198.038761,53.3663099 C198.056427,50.6234107 196.003676,48.3082773 193.278386,47.9974659 L185.466718,47.1026585 C184.487033,43.197581 183.00099,39.4373499 181.04637,35.9175667 L185.932018,29.7433961 C187.644191,27.6041043 187.470638,24.5187222 185.529354,22.5849373 L176.581281,13.6368639 C174.647496,11.6955805 171.562114,11.5220278 169.422822,13.2342006 L163.57973,17.8961469 C159.847513,15.666816 155.824377,13.9654151 151.625104,12.8404854 L150.775037,5.5567536 C150.464226,2.83146383 148.149092,0.778712218 145.406193,0.796378535 L132.771514,0.796378535 C130.028614,0.778712218 127.713481,2.83146383 127.402669,5.5567536 L126.552602,12.8404854 C122.47415,13.9417482 118.561788,15.5849401 114.920107,17.7261335 L109.291769,13.2520967 C107.152477,11.5399239 104.067095,11.7134767 102.13331,13.6547601 L93.1852367,22.6028335 C91.2439533,24.5366183 91.0704005,27.6220005 92.7825734,29.7612922 L97.372935,35.5596438 C95.4166572,39.0501237 93.9131998,42.7756911 92.8988983,46.6463068 L85.4451532,47.5411141 C82.7198634,47.8519256 80.6671118,50.167059 80.6847781,52.9099582 L80.6847781,65.5088456 C80.6671118,68.2517448 82.7198634,70.5668782 85.4451532,70.8776896 L93.0062752,71.772497 C94.0751398,75.6977537 95.6513621,79.4668503 97.6950657,82.984433 L92.7915214,89.2480844 C91.0793486,91.3873761 91.2529014,94.4727583 93.1941847,96.4065431 L102.142258,105.354617 C104.076043,107.2959 107.161425,107.469453 109.300717,105.75728 L115.564368,100.764255 C119.187331,102.751255 123.052177,104.261101 127.062643,105.256188 L127.95745,113.309454 C128.268261,116.034744 130.583395,118.087495 133.326294,118.069829 L146.005714,118.069829 C148.748613,118.087495 151.063747,116.034744 151.374558,113.309454 L152.349898,104.925109 C156.065479,103.873155 159.638432,102.370652 162.989157,100.451072 L169.503355,105.614111 C171.642647,107.326283 174.728029,107.152731 176.661814,105.211447 L185.609887,96.2633739 C187.551171,94.3295891 187.724723,91.244207 186.01255,89.1049152 L180.751083,82.5638735 C182.578552,79.3293486 184.025824,75.8943311 185.064055,72.3272775 L193.278386,71.3698337 Z M160.054189,58.9946481 C160.054189,70.5685416 150.671695,79.9510361 139.097801,79.9510361 C127.523908,79.9510361 118.141413,70.5685416 118.141413,58.9946481 C118.141413,47.4207546 127.523908,38.0382601 139.097801,38.0382601 C150.665563,38.0530495 160.0394,47.4268861 160.054189,58.9946481 Z" id="Shape"></path>
                    <path d="M12.8315373,82.4564966 L15.7396612,86.7963122 C13.8811064,89.5105837 12.3775483,92.4515434 11.2656244,95.5475281 L5.89678039,95.7175415 C3.2421837,95.8658384 1.10551566,97.9528164 0.894807343,100.60319 L0.152117248,109.327561 C-0.0442134508,112.008238 1.77205394,114.421005 4.40245213,114.973795 L9.70865967,116.056512 C10.3120535,119.332017 11.3408418,122.514643 12.7689008,125.523574 L8.88543691,129.639688 C7.03557647,131.598936 6.95464544,134.635776 8.69752737,136.69077 L14.3169175,143.392877 C16.0539864,145.452984 19.0593439,145.88397 21.3053628,144.395061 L26.1283744,141.209547 C28.9042326,143.101464 31.9115079,144.62916 35.0764478,145.755168 L35.2643574,151.616156 C35.3542429,154.306461 37.4411662,156.504841 40.1231612,156.734454 L48.8475328,157.477144 C51.5282092,157.673475 53.9409771,155.857208 54.4937672,153.226809 L55.7017571,147.240548 C58.7933407,146.636563 61.7986904,145.653814 64.6498305,144.314528 L69.0254384,148.412746 C70.9846864,150.262606 74.0215266,150.343537 76.0765203,148.600655 L82.7607311,142.954421 C84.8178861,141.214857 85.2449779,138.209824 83.7539673,135.965976 L80.4163359,130.937158 C82.1334856,128.426675 83.5509555,125.723873 84.6398266,122.883892 L90.6081915,122.695983 C93.2984964,122.606097 95.496876,120.519174 95.7264895,117.837179 L96.4691796,109.112807 C96.6655103,106.432131 94.8492429,104.019363 92.2188447,103.466573 L86.7963122,102.303323 C86.2443004,99.0533301 85.2884015,95.8850365 83.9508249,92.8720541 L87.8163926,88.7559403 C89.6662531,86.7966924 89.7471841,83.7598521 88.0043022,81.7048585 L82.3222755,74.9848553 C80.5852066,72.9247477 77.5798491,72.4937618 75.3338302,73.9826711 L70.92243,76.9534315 C68.0328673,74.8748847 64.8675804,73.2094197 61.5180048,72.0051469 L61.3479914,66.8242124 C61.2581059,64.1339074 59.1711826,61.9355279 56.4891875,61.7059144 L47.764816,60.9632243 C45.0841396,60.7668936 42.6713717,62.583161 42.1185816,65.2135591 L41.071657,70.2692206 C37.6613962,70.8796911 34.3500607,71.9513596 31.2287763,73.4547348 L27.5332219,69.9918304 C25.5762878,68.1393403 22.5393838,68.0545536 20.4821401,69.7949727 L13.7979292,75.4412071 C11.722678,77.1848294 11.3050207,80.2167124 12.8315373,82.4564966 Z M31.0319186,107.376881 C31.6138863,100.463037 36.3035582,94.5806372 42.9139512,92.4728819 C49.5243442,90.3651267 56.7535098,92.4471484 61.2301966,97.7480166 C65.7068834,103.048885 66.5493865,110.524568 63.3648128,116.688854 C60.1802391,122.853139 53.5958056,126.491942 46.6820991,125.908341 C37.2436554,125.111622 30.2374288,116.815513 31.0319186,107.376881 Z" id="Shape" fill-opacity="0.7"></path>
                    <path d="M150.775037,148.994371 C150.089039,146.398074 149.069412,143.901644 147.74164,141.56747 L150.014451,138.64145 C151.671683,136.509237 151.459671,133.471688 149.522307,131.590368 L145.656739,127.814281 C143.730653,125.928587 140.695658,125.789933 138.605657,127.49215 L135.921235,129.657584 C133.41145,128.212276 130.717448,127.113605 127.91271,126.391537 L127.49215,123.08075 C127.15333,120.390258 124.834327,118.39205 122.123306,118.454596 L116.754462,118.517233 C114.055319,118.543894 111.806321,120.592639 111.528787,123.277608 L111.18876,126.615239 C108.471931,127.379269 105.871208,128.508056 103.457625,129.970767 L100.970061,127.95745 C98.8378481,126.300218 95.8002993,126.51223 93.9189787,128.449594 L90.1607879,132.288318 C88.2750943,134.214404 88.1364397,137.249399 89.8386572,139.339399 L91.9861948,141.970133 C90.7107805,144.314751 89.7338139,146.809773 89.078071,149.397034 L85.6420108,149.844438 C82.951519,150.183258 80.953311,152.502261 81.0158568,155.213282 L81.0784933,160.582126 C81.1051547,163.281268 83.1538997,165.530267 85.8388684,165.807801 L89.3644093,166.165724 C90.1094528,168.772788 91.195598,171.27002 92.5946638,173.592624 L90.3218532,176.545489 C88.6646213,178.677701 88.876633,181.71525 90.8139972,183.596571 L94.6527207,187.354761 C96.5788067,189.240455 99.6138019,189.37911 101.703803,187.676892 L104.692459,185.22512 C107.101288,186.539952 109.669714,187.538451 112.334114,188.19588 L112.826258,192.061448 C113.165078,194.75194 115.484081,196.750148 118.195102,196.687602 L123.563946,196.624965 C126.263089,196.598304 128.512087,194.549559 128.789621,191.86459 L129.21018,187.784269 C131.67919,187.054858 134.047771,186.020859 136.261262,184.706132 L139.42888,187.148956 C141.561093,188.806188 144.598641,188.594176 146.479962,186.656812 L150.238153,182.818088 C152.123846,180.892002 152.262501,177.857007 150.560283,175.767006 L147.92955,172.697817 C149.136792,170.534702 150.07724,168.233158 150.730297,165.843593 L154.676397,165.333553 C157.366889,164.994733 159.365097,162.675729 159.302551,159.964709 L159.239915,154.595865 C159.213253,151.896722 157.164508,149.647724 154.47954,149.37019 L150.775037,148.994371 Z M133.961607,157.101325 C134.054921,164.814773 127.877786,171.143509 120.164343,171.237204 C112.450899,171.330899 106.121859,165.154076 106.027783,157.440637 C105.933707,149.727198 112.110217,143.397853 119.823651,143.303396 C127.534195,143.218837 133.858468,149.391008 133.961607,157.101325 Z" id="Shape" fill-opacity="0.4"></path>
                </g>
                <g id="icon-04" opacity="0.5" transform="translate(366.968572, 0.897304)" fill-rule="nonzero">
                    <path d="M125.139906,64.8427668 C125.182422,37.9141657 107.426813,14.1968878 81.576592,6.65252246 C55.7263711,-0.891842886 28.0009187,9.55182528 13.5523078,32.2760196 C-0.896303103,55.000214 1.40816113,84.5376539 19.2063014,104.746008 L19.1325885,104.746008 C19.1325885,104.746008 46.2753104,136.082174 44.5799141,145.173429 L84.5896293,145.173429 C84.5896293,145.173429 93.3287012,125.786941 100.97027,113.141086 C116.182524,101.745596 125.137975,83.8498673 125.139906,64.8427668 Z" id="Shape" fill="#603813"></path>
                    <path d="M45.5627525,157.557194 C43.7533969,157.557194 42.2866243,156.090421 42.2866243,154.281066 C42.2866243,152.47171 43.7533969,151.004938 45.5627525,151.004938 L83.6886941,151.004938 C85.4980497,151.004938 86.9648222,152.47171 86.9648222,154.281066 C86.9648222,156.090421 85.4980497,157.557194 83.6886941,157.557194 L45.5627525,157.557194 Z" id="Shape" fill="#603813"></path>
                    <path d="M49.7971482,170.571613 C47.9877925,170.571613 46.52102,169.104841 46.52102,167.295485 C46.52102,165.486129 47.9877925,164.019357 49.7971482,164.019357 L79.4461081,164.019357 C81.2554637,164.019357 82.7222363,165.486129 82.7222363,167.295485 C82.7222363,169.104841 81.2554637,170.571613 79.4461081,170.571613 L49.7971482,170.571613 Z" id="Shape" fill="#603813"></path>
                    <path d="M61.1816936,130.553708 C61.0899117,132.479487 59.5018233,133.993691 57.5738574,133.993691 C55.6458916,133.993691 54.0578031,132.479487 53.9660213,130.553708 C53.9660213,115.295141 53.5155536,103.902405 51.4106413,93.3450819 C49.3057289,82.7877588 45.5955138,73.2460355 38.9777349,61.3127387 C38.0074679,59.5689722 38.6345132,57.3688134 40.3782797,56.3985464 C42.1220462,55.4282795 44.322205,56.0553247 45.2924719,57.7990912 C52.3197669,70.4695169 56.3002626,80.7811303 58.5198394,91.9281564 C60.6984647,102.935947 61.1653129,114.754579 61.1816936,130.553708 Z" id="Shape" fill="#FFFFFF"></path>
                    <path d="M75.2199028,130.553708 C75.1281209,132.479487 73.5400325,133.993691 71.6120666,133.993691 C69.6841008,133.993691 68.0960123,132.479487 68.0042305,130.553708 C68.0042305,114.76277 68.4792691,102.944137 70.6742749,91.9363467 C72.8938518,80.7893206 76.8743475,70.4777072 83.9016424,57.8072815 C84.8719094,56.0657768 87.0702347,55.440565 88.8117395,56.4108319 C90.5532443,57.3810989 91.1784561,59.5794242 90.2081891,61.320929 C83.5822199,73.2378452 79.8556241,82.918804 77.808044,93.3696528 C75.6703704,103.894215 75.2280931,115.295141 75.2199028,130.553708 Z" id="Shape" fill="#FFFFFF"></path>
                    <path d="M41.025315,62.9917544 C39.1232299,62.3833585 38.0744875,60.3482116 38.6828834,58.4461265 C39.2912792,56.5440414 41.3264261,55.4952991 43.2285112,56.1036949 C45.5400429,56.9016613 47.7855853,57.8792938 49.9445739,59.0276393 L50.1411416,59.1341135 C53.2862247,60.7230356 55.8743659,61.959774 57.8564235,60.3708518 L62.3119578,56.7425399 C63.3141538,55.9290786 64.6741975,55.7120745 65.8797736,56.173271 C67.0853498,56.6344676 67.9533027,57.703798 68.1566828,58.9784559 C68.3600629,60.2531137 67.867972,61.5394481 66.8657759,62.3529094 L62.4102416,65.9812213 C56.8653947,70.4940879 52.3279572,68.299082 46.8486328,65.5553247 L46.6848264,65.5225634 C44.8658399,64.5354285 42.973781,63.6893413 41.025315,62.9917544 Z" id="Shape" fill="#FFFFFF"></path>
                    <path d="M85.9574128,56.1118852 C87.1878462,55.7183221 88.5347769,56.0110831 89.4908292,56.8798881 C90.4468815,57.7486931 90.8668083,59.0615498 90.5924273,60.3239179 C90.3180463,61.586286 89.3910424,62.6063816 88.160609,62.9999447 C86.2083082,63.6881792 84.3109207,64.5232488 82.484717,65.4979924 L82.3209106,65.5717053 C76.8661572,68.3154626 72.3205293,70.4858976 66.7593018,65.997602 L62.3037675,62.36929 C61.3015714,61.5558288 60.8094805,60.2694943 61.0128606,58.9948365 C61.2162407,57.7201786 62.0841936,56.6508482 63.2897697,56.1896517 C64.4953459,55.7284551 65.8553896,55.9454592 66.8575856,56.7589205 L71.3131199,60.3872325 C73.2624162,61.9761546 75.8751284,60.7230356 79.0284018,59.1504941 L79.2249694,59.0440199 C81.3881287,57.8903118 83.6393251,56.9098638 85.9574128,56.1118852 Z" id="Shape" fill="#FFFFFF"></path>
                    <path d="M110.17619,19.4356304 C132.666666,41.8820996 135.421245,77.3786066 116.662924,103.026041 C111.621264,109.892742 106.198971,116.471682 100.421519,122.731952 C92.8782336,131.069698 89.5775345,134.730771 89.5775345,146.926158 C89.5730306,148.923627 87.9548823,150.541776 85.9574128,150.54628 L43.5397434,150.54628 C41.5390762,150.546285 39.9159476,148.92682 39.9114314,146.926158 C39.9114314,134.845435 36.5370194,131.159791 29.0510665,122.95309 C23.1601122,116.643444 17.6492376,109.989371 12.5475709,103.026041 C-0.707545774,84.8777311 -3.55049168,61.1347877 5.04523738,40.3700894 L5.11075994,40.2226636 C11.6743595,24.4791722 24.2083388,11.9775879 39.9687637,5.4547534 C64.0517415,-4.51278108 91.7676539,1.00842004 110.192571,19.4438207 L110.17619,19.4356304 Z M121.806445,65.0229538 C121.789521,45.922685 112.251027,28.0881378 96.3738291,17.470457 C80.4966313,6.85277626 60.3709766,4.84978892 42.712521,12.1298645 C28.7529967,17.9440675 17.6391817,29.0137568 11.7694904,42.9500403 L11.6957776,43.146608 C4.06694916,61.5742879 6.59026631,82.6453828 18.3545081,98.7506933 C23.3182398,105.506096 28.6758083,111.963073 34.3993458,118.08804 C42.4586211,126.900825 46.4718781,131.307217 47.0943424,143.306036 L82.4355751,143.306036 C83.0580394,131.217123 86.9893932,126.859873 95.0896201,117.916043 C100.697836,111.836955 105.958908,105.446558 110.847797,98.7752643 C118.001591,88.9796102 121.851271,77.1609203 121.839207,65.0311442 L121.806445,65.0229538 Z" id="Shape" fill="#FFFFFF"></path>
                    <path d="M54.0561148,183.586032 C52.2467592,183.586032 50.7799866,182.11926 50.7799866,180.309904 C50.7799866,178.500548 52.2467592,177.033776 54.0561148,177.033776 L75.2362834,177.033776 C77.045639,177.033776 78.5124116,178.500548 78.5124116,180.309904 C78.5124116,182.11926 77.045639,183.586032 75.2362834,183.586032 L54.0561148,183.586032 Z" id="Shape" fill="#603813"></path>
                    <path d="M26.9461542,79.3478243 C27.6137311,81.1595468 26.7383991,83.1759254 24.9589859,83.9253826 C23.1795727,84.6748399 21.125394,83.8923194 20.295614,82.1489138 C19.0474853,79.1997024 18.1007827,76.1318374 17.4699535,72.9921356 C16.8342656,69.8483995 16.5105426,66.649577 16.5034957,63.442222 C16.5034957,61.4406223 18.1261128,59.8180052 20.1277124,59.8180052 C22.1293121,59.8180052 23.7519292,61.4406223 23.7519292,63.442222 C23.7537808,66.1764197 24.0281476,68.9036255 24.5709613,71.5834005 C25.1047077,74.2454601 25.9059652,76.8468031 26.9625348,79.3478243 L26.9461542,79.3478243 Z M26.9461542,47.5038585 C26.4864012,48.7515722 25.3782732,49.6457692 24.061591,49.8315388 C22.7449088,50.0173084 21.4326386,49.4646035 20.645626,48.3927949 C19.8586134,47.3209864 19.7241535,45.9034334 20.295614,44.7027689 C21.4983552,41.8574241 22.9711627,39.1339645 24.6938161,36.5697807 C28.1563528,31.4209057 32.5877756,26.9950464 37.7409965,23.5389809 C40.3010505,21.8142664 43.0219972,20.3413346 45.8657944,19.1407788 C48.8115028,17.8907915 51.8768438,16.944021 55.0143823,16.3151183 C58.1604053,15.6762791 61.3622586,15.352527 64.5724862,15.3486605 C66.5740859,15.3486605 68.196703,16.9712776 68.196703,18.9728773 C68.196703,20.9744769 66.5740859,22.597094 64.5724862,22.597094 C61.8384713,22.6025405 59.1116196,22.8768717 56.4313077,23.4161261 C53.7711008,23.9505359 51.1722685,24.7546097 48.6750743,25.81589 C46.2592772,26.8335153 43.9471198,28.0814768 41.7706342,29.5424858 C37.4110373,32.5022859 33.655634,36.2660283 30.7055113,40.6321796 C29.2346743,42.7967275 27.9757425,45.0979123 26.9461542,47.5038585 Z" id="Shape" fill="#FFFFFF"></path>
                </g>
                <g id="icon-06" transform="translate(332.850228, 185.418225)" stroke="#B61600" stroke-width="4">
                    <path d="M118.27886,11.2435867 C103.466698,-3.56771528 79.4523513,-3.56771528 64.6401899,11.2435867 C49.7957768,-3.37638647 25.9376541,-3.28552021 11.2050335,11.4471004 C-3.52758703,26.1797209 -3.6184533,50.0378436 11.0015199,64.8822567 L64.6318427,118.529274 L118.270513,64.8906038 C125.386833,57.7782988 129.385772,48.1299822 129.387337,38.0688244 C129.388902,28.0076665 125.392967,18.3581059 118.27886,11.2435867 Z" id="Shape"></path>
                </g>
                <g id="icon-10" transform="translate(146.683765, 304.631179)" stroke="#B61600" stroke-linecap="round" stroke-linejoin="round" stroke-width="4">
                    <path d="M65.8678947,27.4078064 L47.8748728,27.4078064 L47.8748728,9.70773454 C47.8569807,4.51683972 43.5899251,0.313162871 38.3207673,0.295536591 L37.499049,0.295536591 C32.2298911,0.313162871 27.9628355,4.51683972 27.9449434,9.70773454 L27.9449434,27.4013817 L9.97148624,27.4013817 C4.70232838,27.419008 0.435272751,31.6226849 0.417380719,36.8135797 L0.417380719,37.6230929 C0.435272751,42.8139878 4.70232838,47.0176646 9.97148624,47.0352909 L27.9319003,47.0352909 L27.9319003,64.7289381 C27.9497923,69.9198329 32.216848,74.1235098 37.4860058,74.141136 L38.3077241,74.141136 C43.576882,74.1235098 47.8439376,69.9198329 47.8618296,64.7289381 L47.8618296,47.0481403 L65.8678947,47.0481403 C71.1370526,47.030514 75.4041082,42.8268372 75.4220002,37.6359424 L75.4220002,36.8264291 C75.4076858,31.6330255 71.1395882,27.425452 65.8678947,27.4078064 Z" id="Shape"></path>
                </g>
                <g id="icon-13" transform="translate(233.242736, 245.024702)" opacity="0.7" stroke="#000000" stroke-linecap="round" stroke-linejoin="round" stroke-width="5.61">
                    <g id="Group">
                        <path d="M39.988041,0.353141141 L49.0935429,0.353141141 C50.7494238,0.353141141 52.0917805,1.69549781 52.0917805,3.35137867 L52.0917805,37.0451981 L0.401611494,37.0451981 L0.401611494,3.35137867 C0.401611494,1.69549781 1.74396816,0.353141141 3.39984902,0.353141141 L14.0356293,0.353141141" id="Shape"></path>
                        <path d="M52.0987048,37.0451981 C52.0987048,51.3209562 40.5259163,62.8937448 26.2501581,62.8937448 C11.9744,62.8937448 0.401611494,51.3209562 0.401611494,37.0451981" id="Shape"></path>
                        <path d="M81.9425934,81.935669 C81.7027724,97.1435152 69.3061128,109.346226 54.0963758,109.346226 C38.8866387,109.346226 26.4899791,97.1435152 26.2501581,81.935669 L26.2501581,62.8937448" id="Shape"></path>
                        <circle id="Oval" cx="81.9425934" cy="70.912126" r="9.7840869"></circle>
                    </g>
                </g>
                <g id="icon-08" transform="translate(176.227845, 40.156566)" stroke="#B61600" stroke-linecap="round" stroke-linejoin="round" stroke-width="4">
                    <polyline id="Shape" points="0.568614259 46.8283769 25.7896493 46.8283769 28.7524289 51.280028 37.2816428 38.6657696 42.4814705 44.9728988 48.4145114 44.9728988 58.0585085 0.463869527 67.3284173 85.4043653 76.2317195 45.7135937 105.904406 45.7135937"></polyline>
                </g>
                <g id="icon-05" transform="translate(66.877519, 165.391370)" stroke="#B61600" stroke-width="4">
                    <polygon id="Shape" stroke-linecap="round" stroke-linejoin="round" points="18.0670962 14.6320091 0.204643484 65.3031975 35.9222402 65.3031975"></polygon>
                    <polygon id="Shape" stroke-linejoin="round" points="73.5912587 14.6320091 55.7361147 65.3031975 91.4537113 65.3031975"></polygon>
                    <path d="M35.9222402,65.3105062 C36.0530626,71.7769602 32.6780968,77.8089898 27.0987699,81.0805723 C21.519443,84.3521548 14.6074407,84.3521548 9.02811378,81.0805723 C3.44878686,77.8089898 0.0738210479,71.7769602 0.204643484,65.3105062" id="Shape"></path>
                    <path d="M91.4537113,65.3105062 C91.5845338,71.7769602 88.209568,77.8089898 82.630241,81.0805723 C77.0509141,84.3521548 70.1389119,84.3521548 64.559585,81.0805723 C58.980258,77.8089898 55.6052922,71.7769602 55.7361147,65.3105062" id="Shape"></path>
                    <path d="M18.0670962,14.6247004 L73.5912587,14.6247004" id="Shape" stroke-linecap="round" stroke-linejoin="round"></path>
                    <polyline id="Shape" stroke-linecap="round" stroke-linejoin="round" points="32.3044357 104.938255 45.8328318 104.938255 45.8328318 0.665091324"></polyline>
                    <path d="M59.7485887,104.938255 L45.8328318,104.938255" id="Shape" stroke-linecap="round" stroke-linejoin="round"></path>
                </g>
                <g id="icon-12" transform="translate(315.136853, 15.079384)" opacity="0.7" stroke="#000000" stroke-linecap="round" stroke-linejoin="round" stroke-width="5.61">
                    <g id="Group">
                        <ellipse id="Oval" cx="43.2764215" cy="43.4127139" rx="14.733925" ry="42.7742916"></ellipse>
                        <ellipse id="Oval" transform="translate(43.280299, 43.412993) rotate(-45.000000) translate(-43.280299, -43.412993) " cx="43.2802991" cy="43.4129931" rx="14.733925" ry="42.7742916"></ellipse>
                        <ellipse id="Oval" cx="43.2764215" cy="43.4127139" rx="42.7742916" ry="14.733925"></ellipse>
                        <ellipse id="Oval" transform="translate(43.280299, 43.412993) rotate(-45.000000) translate(-43.280299, -43.412993) " cx="43.2802991" cy="43.4129931" rx="42.7742916" ry="14.733925"></ellipse>
                        <circle id="Oval" cx="43.2764215" cy="43.4127139" r="3.07733877"></circle>
                    </g>
                </g>
                <g id="icon-11" transform="translate(40.637096, 17.073687)" opacity="0.7" stroke="#000000" stroke-linecap="round" stroke-linejoin="round" stroke-width="5.61">
                    <g id="Group">
                        <path d="M0.0387604555,0 C0.0387604555,0 -0.994851692,12.8620112 27.0806383,26.7963949 C53.2374857,39.7811475 27.0806383,58.5024476 27.0806383,58.5024476" id="Shape"></path>
                        <path d="M11.0725701,26.7963949 C11.0725701,26.7963949 -15.5041822,46.4414858 19.7807525,62.8113182 C19.7807525,62.8113182 40.5369764,73.7223865 36.8999537,85.7316676" id="Shape"></path>
                        <path d="M1.2080342,85.7316676 C1.2080342,85.7316676 -3.10729652,75.1823636 11.0790302,67.5400938" id="Shape"></path>
                        <path d="M37.3327788,0 C37.3327788,0 38.715235,9.34772986 26.1826877,18.6954597" id="Shape"></path>
                        <path d="M1.46643723,6.466536 L36.2087256,6.466536" id="Shape"></path>
                        <path d="M3.04269576,36.5188092 L37.3779993,36.5188092" id="Shape"></path>
                        <path d="M3.04269576,49.3614401 L35.8275811,49.3614401" id="Shape"></path>
                        <path d="M0.930250933,79.0519491 L36.6350906,79.0519491" id="Shape"></path>
                    </g>
                </g>
                <g id="icon-09" transform="translate(466.485473, 56.659789)" stroke="#B61600" stroke-linecap="round" stroke-linejoin="round" stroke-width="4">
                    <circle id="Oval" cx="30.4702461" cy="16.0837313" r="15.6425776"></circle>
                    <polyline id="Shape" points="0.238958294 76.1174074 11.5128881 40.2920447 49.4337312 40.261409 60.7015339 76.1174074"></polyline>
                    <path d="M15.6241962,91.7538579 L15.6241962,55.7201725" id="Shape"></path>
                    <path d="M45.316296,55.7201725 L45.316296,91.7538579" id="Shape"></path>
                </g>
            </g>
        </g>
    </g>
</svg>