<?xml version="1.0" encoding="UTF-8"?>
<svg width="30px" height="30px" viewBox="0 0 30 30" version="1.1" xmlns="http://www.w3.org/2000/svg" xmlns:xlink="http://www.w3.org/1999/xlink">
    <!-- Generator: Sketch 49.1 (51147) - http://www.bohemiancoding.com/sketch -->
    <title>Combined Shape</title>
    <desc>Created with Sketch.</desc>
    <defs></defs>
    <g id="Welcome" stroke="none" stroke-width="1" fill="none" fill-rule="evenodd">
        <g id="Hi-Fidelity-Mockup-FINAL" transform="translate(-94.000000, -1643.000000)" fill="#FFFFFF">
            <g id="Group-9" transform="translate(0.000000, 1484.000000)">
                <path d="M99,159 L119,159 C121.761424,159 124,161.238576 124,164 L124,184 C124,186.761424 121.761424,189 119,189 L99,189 C96.2385763,189 94,186.761424 94,184 L94,164 C94,161.238576 96.2385763,159 99,159 Z M113.651808,162.455454 L104.492434,162.455454 C100.769991,162.455454 97.7415682,165.483876 97.7415682,169.206319 L97.7415682,178.365693 C97.7415682,182.088136 100.769991,185.116559 104.492434,185.116559 L113.651808,185.116559 C117.37425,185.116559 120.402673,182.088136 120.402673,178.365693 L120.402673,169.206319 C120.402632,165.483876 117.374209,162.455454 113.651808,162.455454 Z M118.122967,178.365693 C118.122967,180.835025 116.12114,182.836852 113.651808,182.836852 L104.492434,182.836852 C102.023101,182.836852 100.021274,180.835025 100.021274,178.365693 L100.021274,169.206319 C100.021274,166.736946 102.023101,164.73516 104.492434,164.73516 L113.651808,164.73516 C116.12114,164.73516 118.122967,166.736946 118.122967,169.206319 L118.122967,178.365693 Z M109.072121,167.925038 C105.840378,167.925038 103.211153,170.554263 103.211153,173.785965 C103.211153,177.017667 105.840378,179.646933 109.072121,179.646933 C112.303864,179.646933 114.933089,177.017708 114.933089,173.785965 C114.933089,170.554222 112.303864,167.925038 109.072121,167.925038 Z M109.072121,177.367268 C107.094228,177.367268 105.490859,175.763898 105.490859,173.786006 C105.490859,171.808114 107.09427,170.204744 109.072121,170.204744 C111.050013,170.204744 112.653382,171.808114 112.653382,173.786006 C112.653382,175.763857 111.049972,177.367268 109.072121,177.367268 Z M114.944439,169.37345 C115.720072,169.37345 116.348847,168.744675 116.348847,167.969041 C116.348847,167.193408 115.720072,166.564633 114.944439,166.564633 C114.168806,166.564633 113.540031,167.193408 113.540031,167.969041 C113.540031,168.744675 114.168806,169.37345 114.944439,169.37345 Z" id="Combined-Shape"></path>
            </g>
        </g>
    </g>
</svg>