<?xml version="1.0" encoding="UTF-8"?>
<svg width="17px" height="18px" viewBox="0 0 17 18" version="1.1" xmlns="http://www.w3.org/2000/svg" xmlns:xlink="http://www.w3.org/1999/xlink">
    <!-- Generator: Sketch 49.1 (51147) - http://www.bohemiancoding.com/sketch -->
    <title>search</title>
    <desc>Created with Sketch.</desc>
    <defs></defs>
    <g id="Welcome" stroke="none" stroke-width="1" fill="none" fill-rule="evenodd">
        <g id="Hi-Fidelity-Mockup-FINAL" transform="translate(-402.000000, -1649.000000)" fill="#BDBDBD" fill-rule="nonzero">
            <g id="Group-9" transform="translate(0.000000, 1484.000000)">
                <g id="search" transform="translate(402.417321, 165.500000)">
                    <path d="M16.1923466,15.2354167 L12.2113537,11.0949844 C13.2349369,9.8781947 13.7957642,8.34722427 13.7957642,6.7534177 C13.7957642,3.0296419 10.7661223,0 7.04234652,0 C3.31857073,0 0.288928827,3.0296419 0.288928827,6.7534177 C0.288928827,10.4771935 3.31857073,13.5068354 7.04234652,13.5068354 C8.44030399,13.5068354 9.77248903,13.0851872 10.9114676,12.2847604 L14.9227041,16.4566108 C15.090365,16.6307315 15.3158705,16.7267475 15.5575254,16.7267475 C15.7862607,16.7267475 16.0032509,16.6395403 16.1679756,16.4809818 C16.5179788,16.1441918 16.5291366,15.5857135 16.1923466,15.2354167 Z M7.04234652,1.76176114 C9.79480467,1.76176114 12.0340031,4.00095954 12.0340031,6.7534177 C12.0340031,9.50587585 9.79480467,11.7450743 7.04234652,11.7450743 C4.28988837,11.7450743 2.05068996,9.50587585 2.05068996,6.7534177 C2.05068996,4.00095954 4.28988837,1.76176114 7.04234652,1.76176114 Z" id="Shape"></path>
                </g>
            </g>
        </g>
    </g>
</svg>