<?xml version="1.0" encoding="UTF-8"?>
<svg width="30px" height="30px" viewBox="0 0 30 30" version="1.1" xmlns="http://www.w3.org/2000/svg" xmlns:xlink="http://www.w3.org/1999/xlink">
    <!-- Generator: Sketch 49.1 (51147) - http://www.bohemiancoding.com/sketch -->
    <title>twitter-logo-on-black-background</title>
    <desc>Created with Sketch.</desc>
    <defs></defs>
    <g id="Welcome" stroke="none" stroke-width="1" fill="none" fill-rule="evenodd">
        <g id="Hi-Fidelity-Mockup-FINAL" transform="translate(-174.000000, -1643.000000)" fill="#FFFFFF" fill-rule="nonzero">
            <g id="Group-9" transform="translate(0.000000, 1484.000000)">
                <g id="twitter-logo-on-black-background" transform="translate(174.000000, 159.000000)">
                    <path d="M27,0 L3,0 C1.35,0 0,1.35 0,3 L0,27 C0,28.65 1.35,30 3,30 L27,30 C28.65,30 30,28.65 30,27 L30,3 C30,1.35 28.65,0 27,0 Z M23.55,10.95 C23.4,17.85 19.05,22.65 12.45,22.95 C9.75,23.1 7.8,22.2 6,21.15 C7.95,21.4500588 10.5,20.7000588 11.85,19.5 C9.9,19.35 8.7,18.3 8.1,16.65 C8.7,16.8 9.3,16.65 9.75,16.65 C7.95,16.05 6.75,15 6.6,12.6 C7.05,12.9 7.65,13.05 8.25,13.05 C6.9,12.3 6,9.45 7.05,7.65 C9,9.75 11.4,11.55 15.3,11.85 C14.25,7.65 19.9500588,5.4 22.2000588,8.25 C23.2500588,8.1 24.0000588,7.65 24.7500588,7.35 C24.4500588,8.4 23.8500588,9 23.1000588,9.6 C23.8500588,9.45 24.6000588,9.3 25.2000588,9 C25.05,9.75 24.3,10.35 23.55,10.95 Z" id="Shape"></path>
                </g>
            </g>
        </g>
    </g>
</svg>