<?xml version="1.0" encoding="UTF-8"?>
<svg width="153px" height="101px" viewBox="0 0 153 101" version="1.1" xmlns="http://www.w3.org/2000/svg" xmlns:xlink="http://www.w3.org/1999/xlink">
    <!-- Generator: Sketch 49.3 (51167) - http://www.bohemiancoding.com/sketch -->
    <title>Group 10</title>
    <desc>Created with Sketch.</desc>
    <defs>
        <linearGradient x1="100%" y1="50%" x2="0%" y2="50%" id="linearGradient-1">
            <stop stop-color="#EEEEEE" offset="0%"></stop>
            <stop stop-color="#CBCBCB" offset="100%"></stop>
        </linearGradient>
        <linearGradient x1="100%" y1="50%" x2="0%" y2="50%" id="linearGradient-2">
            <stop stop-color="#DBDBDB" offset="0%"></stop>
            <stop stop-color="#FCFCFC" offset="100%"></stop>
        </linearGradient>
    </defs>
    <g id="Page-1" stroke="none" stroke-width="1" fill="none" fill-rule="evenodd">
        <g id="Letter" transform="translate(-243.000000, -35.000000)">
            <g id="Group-10" transform="translate(244.000000, 32.000000)">
                <g id="Group-9">
                    <g id="Group-4" transform="translate(0.589020, 0.656219)">
                        <g id="creative-mind-copy" transform="translate(0.485032, 22.626390)">
                            <rect id="Rectangle" fill="url(#linearGradient-1)" transform="translate(138.472748, 44.098672) scale(-1, 1) translate(-138.472748, -44.098672) " x="126.084785" y="35.0986719" width="24.7759252" height="18" rx="9"></rect>
                            <path d="M10.2062267,51.913538 L29.2062267,51.913538 C34.7290742,51.913538 39.2062267,56.3906905 39.2062267,61.913538 C39.2062267,67.4363855 34.7290742,71.913538 29.2062267,71.913538 L10.2062267,71.913538 C4.68337918,71.913538 0.206226677,67.4363855 0.206226677,61.913538 C0.206226677,56.3906905 4.68337918,51.913538 10.2062267,51.913538 Z M16.323813,0.0684003982 L62.9278275,0.0684003982 C68.450675,0.0684003982 72.9278275,4.5455529 72.9278275,10.0684004 C72.9278275,15.5912479 68.450675,20.0684004 62.9278275,20.0684004 L16.323813,20.0684004 C10.8009655,20.0684004 6.32381303,15.5912479 6.32381303,10.0684004 C6.32381303,4.5455529 10.8009655,0.0684003982 16.323813,0.0684003982 Z" id="Rectangle-Copy-3" fill="url(#linearGradient-2)" transform="translate(36.567027, 35.990969) scale(-1, 1) translate(-36.567027, -35.990969) "></path>
                        </g>
                        <g id="creative-mind-copy" transform="translate(100.334427, 41.276390) scale(-1, 1) translate(-100.334427, -41.276390) translate(82.484427, 6.626390)"></g>
                        <g id="creative-mind" transform="translate(35.126418, 0.357339)"></g>
                        <path d="" id="Path-4" stroke="#979797"></path>
                        <g id="Group-2" transform="translate(130.429700, 6.626390)" stroke="#D0021B" stroke-linecap="round" stroke-linejoin="round" stroke-width="6">
                            <path d="M7.23832778,0.165957092 L7.23832778,14.2074255" id="Path-3"></path>
                            <path d="M14.259062,7.18669129 L0.217593579,7.18669129" id="Path-3"></path>
                        </g>
                        <g id="Group-2-Copy" transform="translate(0.485032, 55.704393)" stroke="#FF001F" stroke-linecap="round" stroke-linejoin="round" stroke-width="4">
                            <path d="M5.8783747,0.134776706 L5.8783747,11.5381029" id="Path-3"></path>
                            <path d="M11.5800378,5.83643979 L0.176711615,5.83643979" id="Path-3"></path>
                        </g>
                        <g id="Group-2-Copy-3" transform="translate(23.126418, 75.926390)" stroke="#D0021B" stroke-linecap="round" stroke-linejoin="round" stroke-width="4">
                            <path d="M5.8783747,0.134776706 L5.8783747,11.5381029" id="Path-3"></path>
                            <path d="M11.5800378,5.83643979 L0.176711615,5.83643979" id="Path-3"></path>
                        </g>
                    </g>
                </g>
                <g id="Group-8" transform="translate(40.000000, 2.656219)" fill-rule="nonzero">
                    <path d="M26.2765966,67.7380321 C25.8945738,66.3129886 24.6125671,65.3239513 23.1511843,65.3239513 C21.8810068,65.3239513 21.4683445,66.040974 19.5398078,66.040974 C10.9857925,66.040974 10.9768722,52.9719436 19.5398078,52.9719436 C21.3277524,52.9719436 22.7775,51.5091312 22.7775,49.7046371 C22.7775,47.9003387 21.3279463,46.4373306 19.5398078,46.4373306 C15.323982,46.4373306 11.5733708,48.4817455 9.20696226,51.6384849 C7.60052707,50.4359454 6.58923307,48.5263637 6.58923307,46.4373306 C6.58923307,44.4072013 7.50744536,42.9524124 8.27769652,42.0897933 C9.38730808,40.8469409 9.38730808,38.9590812 8.27769652,37.7162288 C4.4221745,33.3964801 7.64396521,26.8338828 13.0644235,26.8338828 C14.793998,26.8338828 16.4202131,27.5137237 17.6430741,28.7477699 C18.90724,30.0236945 20.9573647,30.0236945 22.2217246,28.7477699 C23.4860845,27.4718452 23.4860845,25.4031642 22.2217246,24.1272395 C19.7758088,21.6587558 16.5235726,20.2992698 13.0644235,20.2992698 C13.0644235,16.6961524 15.9691546,13.7648525 19.5396139,13.7648525 C20.3467099,13.7648525 21.1557451,13.9268871 21.9448065,14.246651 C23.7422531,14.9748283 25.7702709,13.9560455 26.2765966,12.0679901 C27.0402545,9.21966432 29.5953475,7.23023942 32.4901887,7.23023942 C36.060648,7.23023942 38.9653791,10.1615394 38.9653791,13.7646568 L38.9653791,33.6968704 C31.5853569,35.2146728 26.0148043,41.8152347 26.0148043,49.7044414 C26.0148043,51.5087398 27.4643581,52.9717479 29.2524965,52.9717479 C31.0406349,52.9717479 32.4901887,51.5089355 32.4901887,49.7044414 C32.4901887,45.4449664 35.1971212,41.8134734 38.9653791,40.4647506 L38.9653791,66.0407783 C38.9653791,69.6438957 36.060648,72.5751956 32.4901887,72.5751956 C29.5953475,72.5753913 27.0402545,70.5861621 26.2765966,67.7380321 Z" id="Shape" fill-opacity="0.424564085" fill="#E6001C"></path>
                    <path d="M58.0233222,67.7380321 C57.2596643,70.5861621 54.7045714,72.5753913 51.8097302,72.5751956 C48.2392709,72.5751956 45.3345397,69.6438957 45.3345397,66.0407783 L45.3345397,40.4647506 C49.1027977,41.8134734 51.8097302,45.4449664 51.8097302,49.7044414 C51.8097302,51.5089355 53.2592839,52.9717479 55.0474223,52.9717479 C56.8355608,52.9717479 58.2851145,51.5087398 58.2851145,49.7044414 C58.2851145,41.8152347 52.7145619,35.2146728 45.3345397,33.6968704 L45.3345397,13.7646568 C45.3345397,10.1615394 48.2392709,7.23023942 51.8097302,7.23023942 C54.7045714,7.23023942 57.2596643,9.21966432 58.0233222,12.0679901 C58.5296479,13.9560455 60.5576657,14.9748283 62.3551123,14.246651 C63.1441737,13.9268871 63.9532089,13.7648525 64.7603049,13.7648525 C68.3307642,13.7648525 71.2354953,16.6961524 71.2354953,20.2992698 C67.7763463,20.2992698 64.5241101,21.6587558 62.0781942,24.1272395 C60.8138343,25.4031642 60.8138343,27.4718452 62.0781942,28.7477699 C63.3425541,30.0236945 65.3926788,30.0236945 66.6568448,28.7477699 C67.8797057,27.5137237 69.5059208,26.8338828 71.2354953,26.8338828 C76.6559536,26.8338828 79.8777443,33.3964801 76.0222223,37.7162288 C74.9126107,38.9590812 74.9126107,40.8469409 76.0222223,42.0897933 C76.7924735,42.9524124 77.7106857,44.4072013 77.7106857,46.4373306 C77.7106857,48.5263637 76.6993917,50.4359454 75.0929566,51.6384849 C72.726548,48.4817455 68.9759368,46.4373306 64.760111,46.4373306 C62.9719725,46.4373306 61.5224188,47.9003387 61.5224188,49.7046371 C61.5224188,51.5091312 62.9721665,52.9719436 64.760111,52.9719436 C73.3230466,52.9719436 73.3141263,66.040974 64.760111,66.040974 C62.8315743,66.040974 62.418912,65.3239513 61.1487345,65.3239513 C59.6873517,65.3239513 58.405345,66.3129886 58.0233222,67.7380321 Z" id="Shape" fill-opacity="0.424564085" fill="#E6001C"></path>
                    <path d="M84.1242309,46.3083679 C84.1242309,44.0097351 83.5093472,41.7653992 82.3612548,39.7866882 C85.2910969,34.7382507 84.5277664,28.2695007 80.3385451,24.0419617 C79.4970235,23.1927429 78.5585373,22.4788757 77.5505694,21.9028992 C77.624309,21.3456726 77.6616626,20.7847351 77.6616626,20.2216492 C77.6616626,13.0294617 71.8633313,7.17809448 64.7363327,7.17809448 C64.1648025,7.17809448 63.5954013,7.21715698 63.0300645,7.29508667 C60.7797491,3.27106323 56.5218203,0.656219482 51.8111962,0.656219482 C47.9535127,0.656219482 44.4875587,2.37282104 42.1172471,5.08590698 C39.7469356,2.37282104 36.2809815,0.656219482 32.423298,0.656219482 C27.712674,0.656219482 23.4547452,3.27106323 21.2044298,7.29489136 C13.52661,6.23707886 6.57283164,12.3107117 6.57283164,20.2214539 C6.57283164,20.7845398 6.61037883,21.3454773 6.68392488,21.9027039 C5.675957,22.4784851 4.73747079,23.1927429 3.89594922,24.0417664 C-0.292304387,28.2681335 -1.05757032,34.7364929 1.8732395,39.7864929 C0.725147055,41.7652039 0.110263427,44.0095398 0.110263427,46.3081726 C0.110263427,51.0618835 2.70140665,55.3587585 6.68876343,57.629657 C6.68740864,57.6396179 6.68663447,57.6495789 6.68527967,57.6593445 C5.67169907,65.5146179 11.7524085,72.3950867 19.4981616,72.3950867 C20.0696918,72.3950867 20.639093,72.3560242 21.2044298,72.2780945 C22.3428451,74.314032 23.9956957,75.9880554 25.9607298,77.1464539 L25.9607298,84.3517273 C25.9607298,93.342157 33.2084988,100.656219 42.1172471,100.656219 C51.0259955,100.656219 58.2737645,93.342157 58.2737645,84.3519226 L58.2737645,77.1466492 C60.2386051,75.988446 61.8914556,74.314032 63.0300645,72.2784851 C63.5955948,72.3562195 64.1648025,72.3954773 64.7363327,72.3954773 C72.5782763,72.3954773 78.5912459,65.3788757 77.5457309,57.6300476 C81.5332812,55.3589539 84.1242309,51.0620789 84.1242309,46.3083679 Z M26.2218183,67.5673523 C25.8405401,66.1450867 24.5610325,65.1579773 23.1024984,65.1579773 C21.8347968,65.1579773 21.422939,65.8736023 19.4981616,65.8736023 C10.9608208,65.8736023 10.9519179,52.8300476 19.4981616,52.8300476 C21.2826209,52.8300476 22.7295425,51.3700867 22.7295425,49.5691101 C22.7295425,47.7683289 21.2828144,46.3081726 19.4981616,46.3081726 C15.2905538,46.3081726 11.5472537,48.3486023 9.18545805,51.4991882 C7.58215431,50.2989929 6.57283164,48.3931335 6.57283164,46.3081726 C6.57283164,44.2820007 7.48925405,42.8300476 8.25800374,41.9691101 C9.36545231,40.7286804 9.36545231,38.8445007 8.25800374,37.604071 C4.40999735,33.2927429 7.62550777,26.7429382 13.0353999,26.7429382 C14.7616029,26.7429382 16.3846479,27.4214539 17.6051252,28.6530945 C18.8668269,29.926532 20.9129552,29.926532 22.1748505,28.6530945 C23.4367458,27.379657 23.4367458,25.3150085 22.1748505,24.041571 C19.7337025,21.5778992 16.487806,20.2210632 13.0353999,20.2210632 C13.0353999,16.6249695 15.9344687,13.6993835 19.4979681,13.6993835 C20.3034908,13.6993835 21.1109489,13.8611023 21.8984722,14.1802429 C23.692415,14.9070007 25.7164796,13.8902039 26.2218183,12.0058289 C26.9839875,9.16305542 29.5340998,7.17750854 32.423298,7.17750854 C35.9867974,7.17750854 38.8858663,10.1030945 38.8858663,13.6991882 L38.8858663,33.5925476 C31.5202301,35.1073914 25.9605363,41.6950867 25.9605363,49.5689148 C25.9605363,51.369696 27.4072644,52.8298523 29.1919172,52.8298523 C30.97657,52.8298523 32.423298,51.3698914 32.423298,49.5689148 C32.423298,45.3177429 35.1249539,41.6933289 38.8858663,40.3472351 L38.8858663,65.873407 C38.8858663,69.4695007 35.9867974,72.3950867 32.423298,72.3950867 C29.5340998,72.395282 26.9839875,70.4099304 26.2218183,67.5673523 Z M42.1172471,94.1345398 C37.9046072,94.1345398 34.3130443,91.4081726 32.9791513,87.6128601 L51.2551494,87.6128601 C49.92145,91.4081726 46.3298871,94.1345398 42.1172471,94.1345398 Z M51.8111962,81.0909851 L32.423298,81.0909851 L32.423298,78.917157 C36.2809815,78.917157 39.7469356,77.2005554 42.1172471,74.4872742 C44.4875587,77.2005554 47.9535127,78.917157 51.8111962,78.917157 L51.8111962,81.0909851 Z M75.9764905,41.9693054 C76.7452402,42.8304382 77.6616626,44.2823914 77.6616626,46.3083679 C77.6616626,48.3933289 76.65234,50.2991882 75.0490362,51.4993835 C72.6874341,48.3487976 68.9439405,46.3083679 64.7363327,46.3083679 C62.9518734,46.3083679 61.5049518,47.7683289 61.5049518,49.5693054 C61.5049518,51.3700867 62.9516799,52.8302429 64.7363327,52.8302429 C73.2419325,52.8302429 73.2376746,65.8737976 64.7363327,65.8737976 C63.93081,65.8737976 63.1233518,65.7120789 62.3358285,65.3929382 C60.5418857,64.6663757 58.5180147,65.682782 58.0124825,67.5673523 C57.2503132,70.4101257 54.7002009,72.3956726 51.8110027,72.3956726 C48.2475034,72.3956726 45.3484345,69.4700867 45.3484345,65.8739929 L45.3484345,40.3474304 C49.1095404,41.6935242 51.8110027,45.3181335 51.8110027,49.5691101 C51.8110027,51.3698914 53.2577308,52.8300476 55.0423836,52.8300476 C56.8270364,52.8300476 58.2737645,51.3700867 58.2737645,49.5691101 C58.2737645,41.6954773 52.7142642,35.107782 45.3484345,33.5927429 L45.3484345,13.6997742 C45.3484345,10.1036804 48.2475034,7.17809448 51.8110027,7.17809448 C54.7002009,7.17809448 57.2503132,9.16344604 58.0124825,12.0062195 C58.5174341,13.8892273 60.5405309,14.9081726 62.3358285,14.1806335 C63.1231583,13.8616882 63.93081,13.6999695 64.7363327,13.6999695 C68.299832,13.6999695 71.1989009,16.6255554 71.1989009,20.2216492 C67.7464948,20.2216492 64.5005982,21.5782898 62.0594502,24.042157 C60.797555,25.3155945 60.797555,27.3802429 62.0594502,28.6536804 C63.321152,29.9271179 65.3672803,29.9271179 66.6291756,28.6536804 C67.8500399,27.4220398 69.4726978,26.7435242 71.1989009,26.7435242 C76.6339535,26.7435242 79.8132715,33.3058289 75.976297,37.6044617 C74.869042,38.844696 74.869042,40.7286804 75.9764905,41.9693054 Z" id="Shape" fill="#000000"></path>
                </g>
            </g>
        </g>
    </g>
</svg>